<svg xmlns="http://www.w3.org/2000/svg" enable-background="new 0 0 1500 1500" viewBox="0 0 1500 1500"><linearGradient id="a" x1="282.413" x2="946.885" y1="881.563" y2="881.563" gradientUnits="userSpaceOnUse"><stop class="stopColor7734ff svgShape" offset="0" stop-color="#349fff"/><stop class="stopColorae79fa svgShape" offset="1" stop-color="#79bdfa"/></linearGradient><path fill="url(#a)" d="M928.61,1103.97H300.69c-10.1,0-18.28-8.18-18.28-18.28V677.43c0-10.1,8.18-18.28,18.28-18.28h627.91     c10.1,0,18.28,8.18,18.28,18.28v408.26C946.89,1095.79,938.7,1103.97,928.61,1103.97z"/><linearGradient id="b" x1="282.413" x2="946.885" y1="686.265" y2="686.265" gradientUnits="userSpaceOnUse"><stop class="stopColor00d4f7 svgShape" offset="0" stop-color="#0082f7"/><stop class="stopColor31ecff svgShape" offset="1" stop-color="#319eff"/></linearGradient><path fill="url(#b)" d="M946.89,713.38H282.41v-35.95c0-10.1,8.18-18.28,18.28-18.28h627.91c10.1,0,18.28,8.18,18.28,18.28V713.38z"/><path fill="#ebf6ff" d="M872.49,692.24h-13.89c-1.66,0-3.01-1.35-3.01-3.01v-5.92c0-1.66,1.35-3.01,3.01-3.01h13.89     c1.66,0,3.01,1.35,3.01,3.01v5.92C875.51,690.89,874.16,692.24,872.49,692.24z" class="colorebf2ff svgShape"/><linearGradient id="c" x1="356.019" x2="733.248" y1="803.5" y2="803.5" gradientUnits="userSpaceOnUse"><stop class="stopColorf7f7f7 svgShape" offset="0" stop-color="#f7f7f7"/><stop class="stopColorffffff svgShape" offset="1" stop-color="#fff"/></linearGradient><path fill="url(#c)" d="M730.86,843.75H358.41c-1.32,0-2.39-1.07-2.39-2.39v-75.73c0-1.32,1.07-2.39,2.39-2.39h372.45        c1.32,0,2.39,1.07,2.39,2.39v75.73C733.25,842.68,732.18,843.75,730.86,843.75z"/><linearGradient id="d" x1="356.594" x2="701.62" y1="901.258" y2="901.258" gradientUnits="userSpaceOnUse"><stop class="stopColorf7f7f7 svgShape" offset="0" stop-color="#f7f7f7"/><stop class="stopColorffffff svgShape" offset="1" stop-color="#fff"/></linearGradient><rect width="345.03" height="49.45" x="356.59" y="876.53" fill="url(#d)"/><linearGradient id="e" x1="356.594" x2="547.508" y1="969.113" y2="969.113" gradientUnits="userSpaceOnUse"><stop class="stopColorf7f7f7 svgShape" offset="0" stop-color="#f7f7f7"/><stop class="stopColorffffff svgShape" offset="1" stop-color="#fff"/></linearGradient><rect width="190.91" height="19.55" x="356.59" y="959.34" fill="url(#e)"/><linearGradient id="f" x1="356.594" x2="866" y1="1022.017" y2="1022.017" gradientUnits="userSpaceOnUse"><stop class="stopColorf7f7f7 svgShape" offset="0" stop-color="#f7f7f7"/><stop class="stopColorffffff svgShape" offset="1" stop-color="#fff"/></linearGradient><rect width="509.41" height="19.55" x="356.59" y="1012.24" fill="url(#f)"/><circle cx="329.57" cy="685.97" r="9.2" fill="#ebf6ff" class="colorebf2ff svgShape"/><circle cx="377.87" cy="685.97" r="9.2" fill="#ebf6ff" class="colorebf2ff svgShape"/><circle cx="426.17" cy="685.97" r="9.2" fill="#ebf6ff" class="colorebf2ff svgShape"/><g fill="#102d47" class="color000000 svgShape"><linearGradient id="g" x1="384.571" x2="515" y1="576.511" y2="576.511" gradientUnits="userSpaceOnUse"><stop class="stopColor00aef2 svgShape" offset="0" stop-color="#0080f2"/><stop class="stopColor12d2ff svgShape" offset="1" stop-color="#128fff"/></linearGradient><path fill="none" stroke="url(#g)" stroke-miterlimit="10" stroke-width="5" d="M387.65,634l-0.58-102.78c0-5.36,4.35-9.71,9.71-9.71H515"/><polygon fill="#0086ff" points="502.44 494.07 502.44 548.94 549.96 521.51" class="color00c8ff svgShape"/><linearGradient id="h" x1="369" x2="413" y1="525" y2="525" gradientUnits="userSpaceOnUse"><stop class="stopColor56eacc svgShape" offset="0" stop-color="#56a4ea"/><stop class="stopColor90ebdc svgShape" offset="1" stop-color="#90c0eb"/></linearGradient><circle cx="391" cy="525" r="22" fill="url(#h)"/></g><g fill="#102d47" class="color000000 svgShape"><linearGradient id="i" x1="577.115" x2="1241.587" y1="659.41" y2="659.41" gradientUnits="userSpaceOnUse"><stop class="stopColord6c7f9 svgShape" offset="0" stop-color="#c7e1f9"/><stop class="stopColore5d7ff svgShape" offset="1" stop-color="#d7ecff"/></linearGradient><path fill="url(#i)" d="M1223.31,881.82H595.39c-10.1,0-18.28-8.18-18.28-18.28V455.28c0-10.1,8.18-18.28,18.28-18.28h627.91      c10.1,0,18.28,8.18,18.28,18.28v408.26C1241.59,873.64,1233.4,881.82,1223.31,881.82z"/><linearGradient id="j" x1="577.115" x2="1241.587" y1="464.112" y2="464.112" gradientUnits="userSpaceOnUse"><stop class="stopColor7734ff svgShape" offset="0" stop-color="#349fff"/><stop class="stopColorae79fa svgShape" offset="1" stop-color="#79bdfa"/></linearGradient><path fill="url(#j)" d="M1241.59,491.22H577.11v-35.95c0-10.1,8.18-18.28,18.28-18.28h627.91c10.1,0,18.28,8.18,18.28,18.28      V491.22z"/><circle cx="627.44" cy="464" r="9.2" fill="#ebf6ff" class="colorebf2ff svgShape"/><circle cx="675.74" cy="464" r="9.2" fill="#ebf6ff" class="colorebf2ff svgShape"/><circle cx="724.05" cy="464" r="9.2" fill="#ebf6ff" class="colorebf2ff svgShape"/><g class="color000000 svgShape"><linearGradient id="k" x1="651.016" x2="1074" y1="581.038" y2="581.038" gradientUnits="userSpaceOnUse"><stop class="stopColorf7f7f7 svgShape" offset="0" stop-color="#f7f7f7"/><stop class="stopColorffffff svgShape" offset="1" stop-color="#fff"/></linearGradient><path fill="url(#k)" d="M1070,621.29H655.01c-2.21,0-4-1.79-4-4v-72.51c0-2.21,1.79-4,4-4H1070c2.21,0,4,1.79,4,4v72.51     C1074,619.5,1072.21,621.29,1070,621.29z"/><linearGradient id="l" x1="651.591" x2="996.618" y1="678.795" y2="678.795" gradientUnits="userSpaceOnUse"><stop class="stopColorf7f7f7 svgShape" offset="0" stop-color="#f7f7f7"/><stop class="stopColorffffff svgShape" offset="1" stop-color="#fff"/></linearGradient><path fill="url(#l)" d="M995.78,703.52H652.43c-0.46,0-0.84-0.38-0.84-0.84v-47.77c0-0.46,0.38-0.84,0.84-0.84h343.35     c0.46,0,0.84,0.38,0.84,0.84v47.77C996.62,703.15,996.24,703.52,995.78,703.52z"/><linearGradient id="m" x1="651.591" x2="842.506" y1="746.65" y2="746.65" gradientUnits="userSpaceOnUse"><stop class="stopColor7734ff svgShape" offset="0" stop-color="#349fff"/><stop class="stopColorae79fa svgShape" offset="1" stop-color="#79bdfa"/></linearGradient><rect width="190.91" height="19.55" x="651.59" y="736.87" fill="url(#m)"/><linearGradient id="n" x1="651.591" x2="1165" y1="799.554" y2="799.554" gradientUnits="userSpaceOnUse"><stop class="stopColor7734ff svgShape" offset="0" stop-color="#349fff"/><stop class="stopColorae79fa svgShape" offset="1" stop-color="#79bdfa"/></linearGradient><rect width="513.41" height="19.55" x="651.59" y="789.78" fill="url(#n)"/></g></g><g fill="#102d47" class="color000000 svgShape"><linearGradient id="o" x1="1179" x2="1305" y1="623" y2="623" gradientUnits="userSpaceOnUse"><stop class="stopColor41af8f svgShape" offset="0" stop-color="#417baf"/><stop class="stopColor58ccaa svgShape" offset="1" stop-color="#5895cc"/></linearGradient><circle cx="1242" cy="623" r="63" fill="url(#o)"/><polyline fill="none" stroke="#fff" stroke-linecap="round" stroke-linejoin="round" stroke-miterlimit="10" stroke-width="10" points="1212 624 1240 647 1276 603"/></g></svg>