<svg xmlns="http://www.w3.org/2000/svg" data-name="图层 1" viewBox="0 0 4000 3000"><defs><clipPath id="a"><path fill="#fff" stroke="#000102" stroke-miterlimit="10" stroke-width="3" d="M1307.37,358.42l-88.58,168.44-141.48-81.42C1239.09,256.77,1176.88,278.39,1307.37,358.42Z" class="colorffffff svgShape colorStroke020000 svgStroke"/></clipPath><clipPath id="b"><path fill="#fff" stroke="#000102" stroke-miterlimit="10" stroke-width="3" d="M1736.77,1938.35l47.66,11.16c-53.2-423.41,11.5-327.62-198.2-348.74l49.69,325.36Z" class="colorffffff svgShape colorStroke020000 svgStroke"/></clipPath><clipPath id="c"><path fill="#055faf" d="M1776.92,1716c-17.55-159.65-66.67-514.81-157.61-531.32-117.49-21.34-203-29.71-190.84,37.35,10,54.76-97.92,338.23,22.58,622.67C1462.05,1870.67,1783.05,1771.79,1776.92,1716Z" class="color05af9f svgShape"/></clipPath><clipPath id="d"><path fill="#fff" stroke="#000102" stroke-miterlimit="10" stroke-width="3" d="M2144.9,1731.74l46.09-15.93-212.14-268.92c-25.21,46.35-149,177.44-100.63,183.38C2099.27,1849.63,2027,1831.77,2144.9,1731.74Z" class="colorffffff svgShape colorStroke020000 svgStroke"/></clipPath><clipPath id="e"><path fill="#0671d1" stroke="#000102" stroke-miterlimit="10" stroke-width="3" d="M2111.56,1615c-8.64,34.25-297.69,249.07-373.66,194.32-93.61-67.47-121.6-382.78-188.38-551.64,0,0-1029.2,390-848.26-271.16,0,0,542.76-96.59,866-27.35,56.43,12.09,105.9,10.93,141.18,58.12C1911.53,1289,2111.56,1615,2111.56,1615Z" class="color06d1c3 svgShape colorStroke020000 svgStroke"/></clipPath><clipPath id="f"><path fill="#2693f5" stroke="#000102" stroke-miterlimit="10" stroke-width="3" d="M1128.89,382C842.08,435,884.06,450.6,647.81,842.75c-186.62,157.59-63.89,279.62,220.13,257,183.9-46.09,313.28-195,308.27-202.85,35.21-78.28-33.28-123.92,1.52-187.8C1297,388.94,1260.51,531.54,1128.89,382Z" class="color2660f5 svgShape colorStroke020000 svgStroke"/></clipPath><clipPath id="g"><path fill="#fff" stroke="#000102" stroke-miterlimit="10" stroke-width="3" d="M1086.37,939c-50.26,144.69-25.61,144,4.71,61.25-19,55.71,17.86,134.55,22.21,31.59.83,115.5,68.23-85.67,106-130C1272.81,785.14,1132.12,825.14,1086.37,939Z" class="colorffffff svgShape colorStroke020000 svgStroke"/></clipPath><clipPath id="i"><path fill="#fff" stroke="#000102" stroke-miterlimit="10" stroke-width="3" d="M1520.93,580.13c-7.57,92.76,27.42,36.57,28.69-7.5,8.81,12.9,30,34.12,23.22,2.86-74-224.71-217.58,82.89-244.9,129.91.54-1.17,120.72,28.41,110.32,22.28C1462.12,653.62,1450.49,595.79,1520.93,580.13Z" class="colorffffff svgShape colorStroke020000 svgStroke"/></clipPath><clipPath id="j"><path fill="#2693f5" stroke="#000102" stroke-miterlimit="10" stroke-width="3" d="M1178.8,488.36c63.19,64.17,98.55,226.22,98.55,226.22,16.48-31.6,66.47-107.3,94.24-124.93,61.1-38.79,129.55,32.65,128.75,198-133.4,400.06-424.94,239.84-468.17-148.37" class="color2660f5 svgShape colorStroke020000 svgStroke"/></clipPath><clipPath id="k"><path fill="#fff" stroke="#000102" stroke-miterlimit="10" stroke-width="3" d="M1317.08,160c61.45,53.28,33.46,81.75,75.1,163.27,33.28,65.16-122.14,96.24-158.65,8.64-44.76-107.39,12.42-161.7,12.42-161.7" class="colorffffff svgShape colorStroke020000 svgStroke"/></clipPath><clipPath id="l"><path fill="#fff" stroke="#000102" stroke-miterlimit="10" stroke-width="3" d="M1133.22,234.35l-5.42-7.69c-9.36-120.95,136.29-145.6,195.29-67.52l3.21,18.8-50.19,31.18-44.55,13.47" class="colorffffff svgShape colorStroke020000 svgStroke"/></clipPath><clipPath id="m"><path fill="#fff" d="M1354.43,240.59c4.85,32.52-31.16,36.36-38.13,6.41C1311.45,214.48,1347.47,210.64,1354.43,240.59Z" class="colorffffff svgShape"/></clipPath><clipPath id="n"><path fill="#fff" stroke="#000102" stroke-miterlimit="10" stroke-width="3" d="M1820.27,2088.67a245.3,245.3,0,0,1-222.88,3.52L500,1554.06V2731.6a114.3,114.3,0,0,0,114.31,114.3H2705.18a114.3,114.3,0,0,0,114.31-114.3V1559Z" class="colorffffff svgShape colorStroke020000 svgStroke"/></clipPath><clipPath id="o"><path fill="#fff" stroke="#000102" stroke-miterlimit="10" stroke-width="3" d="M2747,1526.57c3.44,60.07-15.47,113.84,29.69,170.55,30.06,32.52,50.43,9.94,16.42-13.63,30.49-39.57,7.15-117.35,12.09-176.7C2798.46,1495.81,2750.29,1524.65,2747,1526.57Z" class="colorffffff svgShape colorStroke020000 svgStroke"/></clipPath><clipPath id="p"><polygon fill="#fff" stroke="#000102" stroke-miterlimit="10" stroke-width="3" points="2710.59 2687.45 2702.49 2808.34 2839.5 2783.27 2856.37 2633.65 2710.59 2687.45" class="colorffffff svgShape colorStroke020000 svgStroke"/></clipPath><clipPath id="q"><path fill="#fff" stroke="#000102" stroke-miterlimit="10" stroke-width="3" d="M2701.81,2753.79s-15.65,62-75.59,55.28c-107.54-12-94.49,76.66-94.49,76.66H2844.9V2759S2753.11,2778.11,2701.81,2753.79Z" class="colorffffff svgShape colorStroke020000 svgStroke"/></clipPath><clipPath id="r"><polygon fill="#fff" stroke="#000102" stroke-miterlimit="10" stroke-width="3" points="3154.38 2597.92 3174.67 2808.34 3037.66 2783.27 3032.26 2525.88 3154.38 2597.92" class="colorffffff svgShape colorStroke020000 svgStroke"/></clipPath><clipPath id="s"><path fill="#fff" stroke="#000102" stroke-miterlimit="10" stroke-width="3" d="M3175.34,2753.79s15.66,62,75.59,55.28c107.54-12,94.49,76.66,94.49,76.66H3032.26V2759S3124.05,2778.11,3175.34,2753.79Z" class="colorffffff svgShape colorStroke020000 svgStroke"/></clipPath><clipPath id="t"><path fill="#fff" stroke="#000102" stroke-miterlimit="10" stroke-width="3" d="M3043.33,1397.58l-.14,19.78-199.7,19-11.52,75.4-93,608.13s-104,486.27-79.36,543.68,227.62,61.23,256.67-20.14c17.58-49.23,49.91-521,49.91-521l69.47-437.53c14.14,652.15-111.28,944-35.79,976.23,95,40.6,223.16-47.08,220.22-50.59.71-23.18,17-107.92,25.66-236.17,35.14-519.82,43.33-966.77,8.11-997.45S3043.33,1397.58,3043.33,1397.58Z" class="colorffffff svgShape colorStroke020000 svgStroke"/></clipPath><clipPath id="u"><path fill="#fff" stroke="#000102" stroke-miterlimit="10" stroke-width="3" d="M3249.55,1652.22l6.51-40.77c-94-8.81,1.19-234.59-126.82-215.54.05.14,6.18,35.82,7,40.68C3202.39,1459.93,3124.33,1641,3249.55,1652.22Z" class="colorffffff svgShape colorStroke020000 svgStroke"/></clipPath><clipPath id="v"><path fill="#2693f5" stroke="#000102" stroke-miterlimit="10" stroke-width="3" d="M2684.27,1559.27c213.07,28,138.3-17.33,163.09-219.73,3.39-31.93,2.46-201,2.49-264.19.76-.49,21.91-167.19-58.49-133.7C2662.44,995.36,2613.57,1434.21,2684.27,1559.27Z" class="color2660f5 svgShape colorStroke020000 svgStroke"/></clipPath><clipPath id="w"><path fill="#2693f5" stroke="#000102" stroke-miterlimit="10" stroke-width="3" d="M2770.43,1139.49l9.22,322.81c82.8,53.65,490.87,7.12,523.8-47.47s-73-501.25-110.29-524.42c-6.85-4.25-185.92-78.52-401.8,51.24-16.15,9.71-31.27,16.51-24.25,58.61" class="color2660f5 svgShape colorStroke020000 svgStroke"/></clipPath><clipPath id="x"><path fill="#fff" stroke="#000102" stroke-miterlimit="10" stroke-width="3" d="M2906,900.31c-.1-5.36.47-5.37.38-10.73s-.49-5.35-.59-10.71.19-5.37.09-10.73-.24-5.35-.33-10.71-.43-5.36-.53-10.72.47-5.36.37-10.72-.48-5.35-.58-10.71-.09-5.36-.19-10.72.06-5.37,0-10.73-.31-5.35-.41-10.71-.06-5.37-.16-10.73-1.61-5.58.16-10.65c3.94,0,7.52-.19,11.24-.28,3.94-.1,7.75-.34,11.45-.55,4-.23,7.77-.4,11.45-.74,4-.37,7.8-.44,11.45-.92,3.95-.53,7.71-1.32,11.32-2,4-.69,7.74-1.25,11.3-2.07,3.93-.89,7.48-2.43,11-3.43,3.9-1.12,7.66-1.91,11-3.12,3.88-1.39,7.33-3,10.57-4.46,3.86-1.7,7.47-3,10.51-4.65,3.89-2.1,6.9-4.52,9.62-6.27,4.63-3,7.71-5.29,9.7-6.16,3.12-1.36,3.59.86,3.41,8.84-.07,3,0,6.74-.2,11.46-.08,2.25-.29,6.06-.23,11,0,3.22.28,6.91.37,11,.07,3.43-.1,7.12,0,11,.09,3.52.55,7.19.66,11,.11,3.58-.11,7.27,0,11s.68,7.29.81,11,.34,7.36.48,11-.27,7.43-.13,11c.16,3.81.75,7.46.91,10.95.17,3.92.14,7.62.3,11,.21,4.23.3,8,.49,11" class="colorffffff svgShape colorStroke020000 svgStroke"/></clipPath><clipPath id="y"><path fill="#fff" stroke="#000102" stroke-miterlimit="10" stroke-width="3" d="M2964.05,838.5V839a72.47,72.47,0,0,1-22.2-3.35c-3.59-1.14-6.81-3.15-10.15-4.81a74.59,74.59,0,0,1-9.79-5.42,77.42,77.42,0,0,1-8.65-7.13,80.43,80.43,0,0,1-7.86-8,97.35,97.35,0,0,1-17.66-40.9,87.26,87.26,0,0,1-.5-11.26c-.1-5.44.37-5.45.25-10.9s-.13-5.44-.25-10.89-.43-5.43-.56-10.88-.19-5.44-.31-10.88.12-5.46,0-10.9-.76-5.43-.89-10.88.4-5.45.27-10.9-.31-5.44-.43-10.88,0-5.45-.15-10.89-.42-5.44-.54-10.89-.12-5.44-.25-10.89-.24-5.44-.37-10.89.69-5.47.57-10.92-4.41-6.95-.59-10.84,5.42-.1,10.89-.1,5.47.25,10.94.25,5.47-.26,10.94-.26,5.48.08,10.95.08h10.94c5.47,0,5.47.2,10.95.2s5.47-.21,10.94-.21,5.47.28,10.94.28,5.47-.48,10.94-.48,5.47,0,10.95,0,5.47.3,10.94.3,5.48.34,11,.34,5.47-.46,10.95-.46,7-3.71,10.9.11.21,5.39.34,10.83.28,5.44.4,10.89-.35,5.45-.23,10.9.69,5.43.82,10.87.1,5.45.23,10.9.31,5.44.44,10.88-.13,5.45,0,10.9.36,5.44.48,10.88-.16,5.45,0,10.89.33,5.44.45,10.89-.51,5.46-.39,10.91.68,5.43.81,10.88-.14,5.45,0,10.9.1,5.45.19,10.9a87.37,87.37,0,0,1-.31,11.25c-.49,3.76-1.75,7.35-2.72,10.92a65.54,65.54,0,0,1-8.69,20.61c-1.93,3.24-3.6,6.68-5.93,9.58s-5.52,5.13-8.24,7.68a77.55,77.55,0,0,1-8.43,7.39,75,75,0,0,1-9.72,5.62c-3.34,1.66-6.65,3.57-10.24,4.71a70.84,70.84,0,0,1-22.26,2.62Z" class="colorffffff svgShape colorStroke020000 svgStroke"/></clipPath><clipPath id="z"><path fill="#fff" d="M2944.48,706.81a38,38,0,0,1-1.13,10.18,21.38,21.38,0,0,1-4.58,9.08,13,13,0,0,1-8.93,4.51,13.42,13.42,0,0,1-9.45-3.32,21.09,21.09,0,0,1-5.77-8.36,34,34,0,0,1-2.29-9.95,37.67,37.67,0,0,1,1.06-10.16,21.71,21.71,0,0,1,4.52-9.14,13.21,13.21,0,0,1,9-4.55,13.59,13.59,0,0,1,9.45,3.43,21.07,21.07,0,0,1,5.89,8.29A34.67,34.67,0,0,1,2944.48,706.81Z" class="colorffffff svgShape"/></clipPath><clipPath id="A"><path fill="#fff" d="M3016.42,706.82a38.49,38.49,0,0,1-1,10.18,21.47,21.47,0,0,1-4.65,9.06,13.12,13.12,0,0,1-8.91,4.58,13.5,13.5,0,0,1-9.42-3.42,21.16,21.16,0,0,1-5.78-8.33,34,34,0,0,1-2.46-9.93,37.55,37.55,0,0,1,1.27-10.16,21.42,21.42,0,0,1,4.54-9.07,13,13,0,0,1,8.89-4.58,13.51,13.51,0,0,1,9.42,3.4,21,21,0,0,1,5.81,8.32A34,34,0,0,1,3016.42,706.82Z" class="colorffffff svgShape"/></clipPath><clipPath id="B"><path fill="#fff" stroke="#000102" stroke-miterlimit="10" stroke-width="3" d="M3324.47,722.16c19.68,22.58,25.87,105.16,44,144.71,2.31-4.3,60.92-14.53,53.35-22.48.34-45.08,23.3-138.47,9.07-156.27-11.12-16.83-10.28,61-12.69,24.88,4.65-27.85-4.83-68.51-16-53.85.32,10.62,1.51,58.88-.76,63.11-6.86-164.17-36.76-100.25-20.57,4.59-19-117.62-38.68-66.57-17.74,27.32C3362.34,792.17,3362.6,710.93,3324.47,722.16Z" class="colorffffff svgShape colorStroke020000 svgStroke"/></clipPath><clipPath id="C"><path fill="#2693f5" stroke="#000102" stroke-miterlimit="10" stroke-width="3" d="M3304.6,1047.4c-.61.37,31.3-208.69,32.91-222.27,28.06-21.15,157-2.79,159.23,13.72,18.16,134.76-38.13,544.83-205.19,423.82" class="color2660f5 svgShape colorStroke020000 svgStroke"/></clipPath><clipPath id="D"><polygon fill="#fff" stroke="#000102" stroke-miterlimit="10" stroke-width="3" points="2884.87 1072.87 2884.87 1225.34 3129.98 1138.33 2884.87 1072.87" class="colorffffff svgShape colorStroke020000 svgStroke"/></clipPath><clipPath id="E"><path fill="#2693f5" stroke="#000102" stroke-miterlimit="10" stroke-width="3" d="M2276.62,1345.49H970.21a66.67,66.67,0,0,0-66.67,66.67v597.95a66.67,66.67,0,0,0,66.67,66.68h854c34.42,43.46,73.69,93,102.23,128.92,13.18,16.62,39.77,7.08,39.77-14.14V2076.79h310.4a66.67,66.67,0,0,0,66.67-66.68V1412.16A66.67,66.67,0,0,0,2276.62,1345.49Z" class="color2660f5 svgShape colorStroke020000 svgStroke"/></clipPath><linearGradient id="h" x1="1125.62" x2="1299.69" y1="856.4" y2="856.4" gradientUnits="userSpaceOnUse"><stop class="stopColor5be3fc svgShape" offset="0" stop-color="#5bb0fc"/><stop class="stopColor3ed1f7 svgShape" offset=".99" stop-color="#3ea0f7"/></linearGradient></defs><g class="color000000 svgShape" opacity=".3"><path fill="#0671d1" d="M2289.2,742.48,2410.48,217.2c10.11-43.8,70.9-49.32,88.45-8l153.9,361.93c13.26,31.19,54.87,37.91,77.72,12.55L3059.21,219c29.49-32.72,83.91-10.48,81.27,33.2L3124,524.72c-2,33.37,31.28,57.58,62.88,45.73L3505.33,451c43.59-16.36,81.53,33.57,53.69,70.64L3317,844a45.85,45.85,0,0,0,2.86,58.71l233.74,253.49c28.24,30.63,4.27,79.92-37.62,77.36l-428.23-26.16a46.8,46.8,0,0,0-49.31,40.08l-47.75,345.89c-5.48,39.67-55.78,54.4-81.84,24L2621.3,1281.51a46.7,46.7,0,0,0-45.88-15l-406.82,92.86c-43,9.82-74.23-39.49-46.64-73.73L2241.74,1137a45.86,45.86,0,0,0-15.79-70.26L1982.64,949.24c-37.58-18.14-33.6-72.47,6.26-85.43l269.18-87.53A46.65,46.65,0,0,0,2289.2,742.48Z" class="color06d1c3 svgShape"/><path fill="#0671d1" d="M1104.09,2500.88c11.54,11.09,30.39,8.94,39.48-4.63l253.69-378.32c-78.78,245.05-14.56,516,170.53,693.89,11.54,11.09,30.39,8.94,39.49-4.63l722.16-1077c9.1-13.57,3.93-31.82-10.71-38.29-234.84-103.7-509.89-60.24-706.68,105.67l253.69-378.32c9.09-13.57,3.93-31.82-10.71-38.29-292.9-129.33-648.38-29.8-836.52,250.78S873.24,2279,1104.09,2500.88Z" class="color06d1c3 svgShape"/><path fill="#0671d1" d="M649.28,2129.52c11.48,10.7,30,8.15,38.92-5.15l330.31-492.59,330.3-492.59c8.92-13.3,4.25-31.4-10-38C1048.29,967.66,705.22,1048,532.36,1305.79S415.41,1911.47,649.28,2129.52Z" class="color06d1c3 svgShape"/></g><path fill="#fff" d="M1307.37,358.42l-88.58,168.44-141.48-81.42C1239.09,256.77,1176.88,278.39,1307.37,358.42Z" class="colorffffff svgShape"/><g class="color000000 svgShape" clip-path="url(#a)"><path fill="#eff3f7" d="M1255,356c-40.59-8.93,8.91,22,9.26,49.88.37,30.07-7.88,41.6,4.21,64.06,23.31,43.26,46.6-109.53,46.6-109.53l-65.82-31.64" class="coloreff1f7 svgShape"/></g><path fill="none" stroke="#000102" stroke-miterlimit="10" stroke-width="3" d="M1307.37,358.42l-88.58,168.44-141.48-81.42C1239.09,256.77,1176.88,278.39,1307.37,358.42Z" class="colorStroke020000 svgStroke"/><path fill="#0671d1" stroke="#000102" stroke-miterlimit="10" stroke-width="3" d="M1277.18,1194.43c-27.25,12.46-376.36,71.37-252.82-30.86,49.32-6.67,209.6-28.39,212.28-28.76C1236.4,1134.49,1274,1189.66,1277.18,1194.43Z" class="color06d1c3 svgShape colorStroke020000 svgStroke"/><path fill="#fff" d="M1736.77,1938.35l47.66,11.16c-53.2-423.41,11.5-327.62-198.2-348.74l49.69,325.36Z" class="colorffffff svgShape"/><g class="color000000 svgShape" clip-path="url(#b)"><path fill="#eff3f7" d="M1517.34,1916.67c268.74-80.44,256.29-229.53,256.29-229.53l-197.81,115.3-2.56,68.69" class="coloreff1f7 svgShape"/></g><path fill="none" stroke="#000102" stroke-miterlimit="10" stroke-width="3" d="M1736.77,1938.35l47.66,11.16c-53.2-423.41,11.5-327.62-198.2-348.74l49.69,325.36Z" class="colorStroke020000 svgStroke"/><path fill="#fff" stroke="#000102" stroke-miterlimit="10" stroke-width="3" d="M1635.92,1926.13l134.74-28.79c22.39-5.91,5.66-.55,23.67,19.67,99.27,168.92,306.93-11.9,312,134.26C1658.1,2090.48,1654.86,2159.92,1635.92,1926.13Z" class="colorffffff svgShape colorStroke020000 svgStroke"/><path fill="#055faf" d="M1776.92,1716c-17.55-159.65-66.67-514.81-157.61-531.32-117.49-21.34-203-29.71-190.84,37.35,10,54.76-97.92,338.23,22.58,622.67C1462.05,1870.67,1783.05,1771.79,1776.92,1716Z" class="color05af9f svgShape"/><g class="color000000 svgShape" clip-path="url(#c)"><path fill="none" stroke="#000102" stroke-miterlimit="10" stroke-width="3" d="M1710.24,1802.75c-152.48-588.46-152.26-705.06-226.68-729.67S753.69,926.31,808.38,690.73" class="colorStroke020000 svgStroke"/><path fill="none" stroke="#000102" stroke-miterlimit="10" stroke-width="3" d="M1668,1823.93c-152.48-588.46-152.25-705.06-226.67-729.67S711.46,947.48,766.15,711.91" class="colorStroke020000 svgStroke"/><path fill="#055faf" d="M1284.16,1321.24c204,48.57,235.9-39.46,235.9-39.46,172.86,473.15,512,473.39,120.18-109.65,25.37-8.2-280.55-.28-290.17-2.84" class="color05af9f svgShape"/></g><path fill="#2693f5" stroke="#000102" stroke-miterlimit="10" stroke-width="3" d="M1765.86,861.93c82.62-1.69,125.56-383.78,207.17-372.07L1826.09,891.6Z" class="color2660f5 svgShape colorStroke020000 svgStroke"/><path fill="#2693f5" stroke="#000102" stroke-miterlimit="10" stroke-width="3" d="M1357.35,894.44l-32-16.32c101.71-51.78,146.49-30.14,349.25-34,117.62,4.55,112.89-18.93,170.32,34.15C1829.43,907.76,1386.13,890.16,1357.35,894.44Z" class="color2660f5 svgShape colorStroke020000 svgStroke"/><path fill="#2693f5" stroke="#000102" stroke-miterlimit="10" stroke-width="3" d="M1824.21,894.56c33.35-20.06,157.7-371.26,148.82-404.7Z" class="color2660f5 svgShape colorStroke020000 svgStroke"/><path fill="#2693f5" stroke="#000102" stroke-miterlimit="10" stroke-width="3" d="M1810.81,912.35l-485.47-.13c-1.09-51.89-1-29.28,29.68-34.09C1464.44,889.51,1973.77,846.93,1810.81,912.35Z" class="color2660f5 svgShape colorStroke020000 svgStroke"/><path fill="#fff" d="M2144.9,1731.74l46.09-15.93-212.14-268.92c-25.21,46.35-149,177.44-100.63,183.38C2099.27,1849.63,2027,1831.77,2144.9,1731.74Z" class="colorffffff svgShape"/><g class="color000000 svgShape" clip-path="url(#d)"><path fill="#eff3f7" d="M1871.15,1750.59c216.29-55.51,240.41-135.58,240.41-135.58l-218.3,14.3-22.11,69.35" class="coloreff1f7 svgShape"/></g><path fill="none" stroke="#000102" stroke-miterlimit="10" stroke-width="3" d="M2144.9,1731.74l46.09-15.93-212.14-268.92c-25.21,46.35-149,177.44-100.63,183.38C2099.27,1849.63,2027,1831.77,2144.9,1731.74Z" class="colorStroke020000 svgStroke"/><path fill="#fff" stroke="#000102" stroke-miterlimit="10" stroke-width="3" d="M2035.66,1792.91c36.56-30.89,133.08-147.35,139-113.56,179.52,99.62,261.56-172.16,342-48.11C2143.9,1911.37,2200.76,1976.43,2035.66,1792.91Z" class="colorffffff svgShape colorStroke020000 svgStroke"/><path fill="#0671d1" d="M2111.56,1615c-8.64,34.25-297.69,249.07-373.66,194.32-93.61-67.47-121.6-382.78-188.38-551.64,0,0-1029.2,390-848.26-271.16,0,0,542.76-96.59,866-27.35,56.43,12.09,105.9,10.93,141.18,58.12C1911.53,1289,2111.56,1615,2111.56,1615Z" class="color06d1c3 svgShape"/><g class="color000000 svgShape" clip-path="url(#e)"><polyline fill="#055faf" points="1338.66 939.94 333.1 1427.95 626.01 1074.6 902.07 939.57 1338.66 939.94" class="color05af9f svgShape"/><path fill="none" stroke="#000102" stroke-miterlimit="10" stroke-width="3" d="M2077.24,1734c-349.08-497.67-389.75-606.94-468.07-603.91s-735,118.39-766.37-121.42" class="colorStroke020000 svgStroke"/><path fill="none" stroke="#000102" stroke-miterlimit="10" stroke-width="3" d="M2044.53,1785.87c-349.08-497.67-389.75-606.95-468.07-603.92s-735,118.39-766.37-121.41" class="colorStroke020000 svgStroke"/><path fill="#055faf" d="M1824.21,1004.81c-2.16,99.67-218.42,99.84-222.81,0C1603.56,905.14,1819.82,905,1824.21,1004.81Z" class="color05af9f svgShape"/></g><path fill="none" stroke="#000102" stroke-miterlimit="10" stroke-width="3" d="M2111.56,1615c-8.64,34.25-297.69,249.07-373.66,194.32-93.61-67.47-121.6-382.78-188.38-551.64,0,0-1029.2,390-848.26-271.16,0,0,542.76-96.59,866-27.35,56.43,12.09,105.9,10.93,141.18,58.12C1911.53,1289,2111.56,1615,2111.56,1615Z" class="colorStroke020000 svgStroke"/><path fill="#2693f5" d="M1128.89,382C842.08,435,884.06,450.6,647.81,842.75c-186.62,157.59-63.89,279.62,220.13,257,183.9-46.09,313.28-195,308.27-202.85,35.21-78.28-33.28-123.92,1.52-187.8C1297,388.94,1260.51,531.54,1128.89,382Z" class="color2660f5 svgShape"/><g class="color000000 svgShape" clip-path="url(#f)"><path fill="#075ca8" d="M1188.44,579.08S998.3,696.5,1018.1,754.24c145.9,425.4-365,383.41-164.62,415.05,426,67.26,313.4-556.2,313.4-556.2h0" class="color0749a8 svgShape"/><path fill="#2693f5" stroke="#000102" stroke-miterlimit="10" stroke-width="3" d="M835.88,497C548.7,524.41,941.15,717.79,1077.31,698.5" class="color2660f5 svgShape colorStroke020000 svgStroke"/><path fill="#2693f5" stroke="#000102" stroke-miterlimit="10" stroke-width="3" d="M886.55,443.73C599.37,471.15,991.82,664.53,1128,645.25" class="color2660f5 svgShape colorStroke020000 svgStroke"/></g><path fill="none" stroke="#000102" stroke-miterlimit="10" stroke-width="3" d="M1128.89,382C842.08,435,884.06,450.6,647.81,842.75c-186.62,157.59-63.89,279.62,220.13,257,183.9-46.09,313.28-195,308.27-202.85,35.21-78.28-33.28-123.92,1.52-187.8C1297,388.94,1260.51,531.54,1128.89,382Z" class="colorStroke020000 svgStroke"/><path fill="#fff" d="M1086.37,939c-50.26,144.69-25.61,144,4.71,61.25-19,55.71,17.86,134.55,22.21,31.59.83,115.5,68.23-85.67,106-130C1272.81,785.14,1132.12,825.14,1086.37,939Z" class="colorffffff svgShape"/><g class="color000000 svgShape" clip-path="url(#g)"><path fill="#eff3f7" d="M1053.61,883.47c79.1-6.17,126.88,89.6,146.66,77.8,2.4-33.29-32.41-168.92-74.65-130.16" class="coloreff1f7 svgShape"/></g><path fill="none" stroke="#000102" stroke-miterlimit="10" stroke-width="3" d="M1086.37,939c-50.26,144.69-25.61,144,4.71,61.25-19,55.71,17.86,134.55,22.21,31.59.83,115.5,68.23-85.67,106-130C1272.81,785.14,1132.12,825.14,1086.37,939Z" class="colorStroke020000 svgStroke"/><path fill="url(#h)" d="M1125.62,866c85.22,149.78,195.34,7.83,170.5-19.42-20.28-25.74-51.09-73.21-50.68-66.69Z"/><path fill="#fff" d="M1520.93,580.13c-7.57,92.76,27.42,36.57,28.69-7.5,8.81,12.9,30,34.12,23.22,2.86-74-224.71-217.58,82.89-244.9,129.91.54-1.17,120.72,28.41,110.32,22.28C1462.12,653.62,1450.49,595.79,1520.93,580.13Z" class="colorffffff svgShape"/><g class="color000000 svgShape" clip-path="url(#i)"><path fill="#eff3f7" d="M1429.23,576.28c61.22,31.77,68.27,51.05,17.8,75.34C1447,651.62,1393.21,564.69,1429.23,576.28Z" class="coloreff1f7 svgShape"/></g><path fill="none" stroke="#000102" stroke-miterlimit="10" stroke-width="3" d="M1520.93,580.13c-7.57,92.76,27.42,36.57,28.69-7.5,8.81,12.9,30,34.12,23.22,2.86-74-224.71-217.58,82.89-244.9,129.91.54-1.17,120.72,28.41,110.32,22.28C1462.12,653.62,1450.49,595.79,1520.93,580.13Z" class="colorStroke020000 svgStroke"/><path fill="#2693f5" d="M1178.8,488.36c63.19,64.17,98.55,226.22,98.55,226.22,16.48-31.6,66.47-107.3,94.24-124.93,61.1-38.79,129.55,32.65,128.75,198-133.4,400.06-424.94,239.84-468.17-148.37" class="color2660f5 svgShape"/><g class="color000000 svgShape" clip-path="url(#j)"><path fill="#075ca8" d="M1278.84,661.19c8.42,38.8-16,80.59-42.3,102.83l42.3-131Z" class="color0749a8 svgShape"/><path fill="#fff" stroke="#000102" stroke-miterlimit="10" stroke-width="3" d="M1327.94,958.43c-2.06,85.56-188,86.62-192.9,0C1137.1,872.87,1323.07,871.81,1327.94,958.43Z" class="colorffffff svgShape colorStroke020000 svgStroke"/><path fill="#075ca8" d="M1332.61,575.22c72.85-1.48,177.66,256.36,177.66,256.36,74.92-39.19-24.85-199.16-24.08-276.43,16.39-8.49-55.85-8.21-69.8-10" class="color0749a8 svgShape"/></g><path fill="none" stroke="#000102" stroke-miterlimit="10" stroke-width="3" d="M1178.8,488.36c63.19,64.17,98.55,226.22,98.55,226.22,16.48-31.6,66.47-107.3,94.24-124.93,61.1-38.79,129.55,32.65,128.75,198-133.4,400.06-424.94,239.84-468.17-148.37" class="colorStroke020000 svgStroke"/><path fill="none" stroke="#000102" stroke-miterlimit="10" stroke-width="3" d="M998.9,1134.81c26.37-18.86,29.41-54.15-15.37-70.09" class="colorStroke020000 svgStroke"/><path fill="#fff" stroke="#000102" stroke-miterlimit="10" stroke-width="3" d="M1145.42,561.53c.18,36.86,53,13.06,46.87,49.12-32.63,11.61,3.6,84.39-51.87,49.44-36.48,5.28-45.92,31-46.74-34-6.36-9.45-31.35-18.16-9.47-35.2C1119.32,602.13,1113,544.5,1145.42,561.53Z" class="colorffffff svgShape colorStroke020000 svgStroke"/><path fill="#000102" d="M1275.86,717.26a69.23,69.23,0,0,1-7.32,13.67c-.69,1.09-1.42,2.15-2.17,3.19l-2.25,3.13c-1.53,2-3.14,4-4.73,6.06s-3.32,3.91-5.06,5.8c-.87.94-1.76,1.88-2.65,2.8s-1.79,1.85-2.74,2.73c-1.84,1.8-3.78,3.51-5.79,5.16-1,.79-2,1.62-3.14,2.34-.55.35-1.06.74-1.64,1.07l-1.74.93-.18-.24a57.06,57.06,0,0,0,5.57-5.21c1.76-1.83,3.48-3.71,5.17-5.62,3.37-3.82,6.65-7.72,9.88-11.67s6.46-7.89,9.59-11.91,6.23-8.08,8.95-12.38Z" class="color020000 svgShape"/><path fill="#000102" d="M713.6,937.79c4.83,3.68,9.42,7.47,14,11.2,1.18.91,2.34,1.83,3.47,2.78l3.49,2.75c1.18.9,2.32,1.84,3.48,2.76l3.52,2.69,3.51,2.71c1.18.89,2.38,1.74,3.55,2.66l3.55,2.66c1.22.85,2.4,1.74,3.58,2.64,4.79,3.52,9.64,7,14.44,10.7l-.14.26A200.32,200.32,0,0,1,713.38,938Z" class="color020000 svgShape"/><path fill="#000102" d="M1562.66,1231.71a61.48,61.48,0,0,1-1.12,11.17c-.27,1.83-.74,3.62-1.11,5.43s-.92,3.56-1.38,5.35-1.07,3.52-1.66,5.27-1.19,3.49-1.92,5.19a63.07,63.07,0,0,1-4.94,10.08l-.29-.08c1.9-7.12,4-14.19,5.92-21.29s4.07-14.16,6.22-21.21Z" class="color020000 svgShape"/><path fill="#000102" d="M1232.61,1046.82a129.78,129.78,0,0,1-6.75,22.83c-.73,1.85-1.48,3.69-2.27,5.52l-2.47,5.43c-.87,1.79-1.79,3.55-2.69,5.33l-2.83,5.25-3.06,5.13c-1.07,1.68-2.11,3.38-3.21,5l-3.4,4.9c-1.16,1.61-2.36,3.2-3.57,4.78a131.14,131.14,0,0,1-16.14,17.5l-.23-.2a251.89,251.89,0,0,0,46.33-81.61Z" class="color020000 svgShape"/><path fill="#000102" d="M1835.9,1908.63c-.47,3.45-1,6.89-1.55,10.32s-1.15,6.85-1.79,10.26l-.94,5.11-1,5.11c-.67,3.4-1.35,6.8-2.09,10.18l-2.93-2.89c7-2,14-4,20.9-6.35,1.72-.6,3.45-1.15,5.18-1.73l5.15-1.8,10.25-3.8,5.08-2c1.68-.7,3.39-1.35,5.08-2l5-2.12c1.67-.74,3.36-1.43,5-2.15,6.7-2.93,13.37-6,20.07-9.06l.15.26a310.16,310.16,0,0,1-39.45,19.61q-10.18,4.2-20.67,7.67t-21.18,6.09l-.4.1.1-.4,9.66-40.44Z" class="color020000 svgShape"/><path fill="#000102" d="M2200.46,1647.71c-.95,3.59-1.83,7.17-2.69,10.75s-1.63,7.16-2.31,10.75-1.35,7.19-1.86,10.8-1,7.22-1.39,10.84l-3.94-2.47,7.68-5.08c2.56-1.7,5.12-3.39,7.73-5l7.77-5,7.85-4.83c2.61-1.62,5.26-3.17,7.91-4.74s5.3-3.11,8-4.63c5.34-3.05,10.73-6,16.25-8.79l.17.25-30.88,20.11-15.45,10.06-15.48,10-.47.3.07-.56a183,183,0,0,1,10.78-42.9Z" class="color020000 svgShape"/><path fill="#000102" d="M1064.5,537.94a35.11,35.11,0,0,1,5.16-10.33,50.45,50.45,0,0,1,3.62-4.52c.65-.71,1.35-1.38,2-2.07l2.12-2,2.27-1.81c.78-.57,1.54-1.17,2.34-1.71l2.46-1.54c.82-.5,1.68-1,2.54-1.39a35.19,35.19,0,0,1,11-3.63l.12.27a79.59,79.59,0,0,0-33.37,28.87Z" class="color020000 svgShape"/><path fill="#000102" d="M762.6,723.26c1.29,2.57,2.35,5,3.47,7.27s2.3,4.51,3.54,6.69,2.54,4.31,3.95,6.46,2.92,4.27,4.48,6.69l-.18.24a34,34,0,0,1-6.08-5.35,36.63,36.63,0,0,1-8-14,33.21,33.21,0,0,1-1.5-8Z" class="color020000 svgShape"/><path fill="#000102" d="M1570.1,1728.23a106.06,106.06,0,0,1,14.73.46c2.44.17,4.84.53,7.27.79s4.81.71,7.22,1.08,4.78.86,7.17,1.35,4.77,1,7.13,1.63a106.08,106.08,0,0,1,14.06,4.37l0,.3-28.81-4.7-28.77-5Z" class="color020000 svgShape"/><path fill="#fff" d="M1317.08,160c61.45,53.28,33.46,81.75,75.1,163.27,33.28,65.16-122.14,96.24-158.65,8.64-44.76-107.39,12.42-161.7,12.42-161.7" class="colorffffff svgShape"/><g class="color000000 svgShape" clip-path="url(#k)"><path fill="#eff3f7" d="M1239.76,309.46c40.07-11.77,47.45-88.8,47.45-88.8s55-20.34,60.56-49.36-41.7-20.47-41.7-20.47l-66.9,68" class="coloreff1f7 svgShape"/></g><path fill="none" stroke="#000102" stroke-miterlimit="10" stroke-width="3" d="M1317.08,160c61.45,53.28,33.46,81.75,75.1,163.27,33.28,65.16-122.14,96.24-158.65,8.64-44.76-107.39,12.42-161.7,12.42-161.7" class="colorStroke020000 svgStroke"/><path fill="#000102" d="M1269.84,191.92c33.8,65.7-42.23,126.06-42.23,126.06s19.2,19.55-24.47,34.29-91.64,10.32-75.52-39.5c-44.47,4,13.39-89.88,22.47-96.83s84.1-6.42,84.1-6.42" class="color020000 svgShape"/><path fill="none" stroke="#000102" stroke-miterlimit="10" stroke-width="3" d="M1269.84,191.92c33.8,65.7-42.23,126.06-42.23,126.06s19.2,19.55-24.47,34.29-91.64,10.32-75.52-39.5c-44.47,4,13.39-89.88,22.47-96.83s84.1-6.42,84.1-6.42" class="colorStroke020000 svgStroke"/><path fill="#fff" stroke="#000102" stroke-miterlimit="10" stroke-width="3" d="M1255,302.78c-83.6-23.76-74.87,65.41-5.89,45.46" class="colorffffff svgShape colorStroke020000 svgStroke"/><path fill="#fff" d="M1133.22,234.35l-5.42-7.69c-9.36-120.95,136.29-145.6,195.29-67.52l3.21,18.8-50.19,31.18-44.55,13.47" class="colorffffff svgShape"/><g class="color000000 svgShape" clip-path="url(#l)"><path fill="#eff3f7" d="M1116.37,184.25c70.42,36.75,157.05-6.12,167.88,3.48s-85,49.21-86.36,50.18-95.7,10.74-95.7,10.74l-1.28-40.73" class="coloreff1f7 svgShape"/></g><path fill="none" stroke="#000102" stroke-miterlimit="10" stroke-width="3" d="M1133.22,234.35l-5.42-7.69c-9.36-120.95,136.29-145.6,195.29-67.52l3.21,18.8-50.19,31.18-44.55,13.47" class="colorStroke020000 svgStroke"/><path fill="#fff" stroke="#000102" stroke-miterlimit="10" stroke-width="3" d="M1124.54,243.6c86.46,13.46,213-44.67,213.3-76.23a14.06,14.06,0,0,0-14.75-8.23c-66.54,65.89-195.29,67.52-195.29,67.52S1108.71,235.05,1124.54,243.6Z" class="colorffffff svgShape colorStroke020000 svgStroke"/><path fill="#fff" d="M1354.43,240.59c4.85,32.52-31.16,36.36-38.13,6.41C1311.45,214.48,1347.47,210.64,1354.43,240.59Z" class="colorffffff svgShape"/><g class="color000000 svgShape" clip-path="url(#m)"><path fill="#102d47" d="M1358.52,241.93c1.49,15.74-16.71,19.06-19.83,1.95C1337.2,228.14,1355.4,224.82,1358.52,241.93Z" class="color160a0a svgShape"/></g><path fill="#fff" d="M1361.74,237.94c17.58,15.48,31,17.73,31.91,24.52s-10.64,18.12-28.33,18.88" class="colorffffff svgShape"/><path fill="none" stroke="#000102" stroke-miterlimit="10" stroke-width="3" d="M1361.74,237.94c17.58,15.48,31,17.73,31.91,24.52s-10.64,18.12-28.33,18.88" class="colorStroke020000 svgStroke"/><path fill="#eff3f7" d="M1324.54,296.53c-6.76,8.88-22.49,10.64-35.55,3.8-13.52-7.09-19.17-20.7-12.15-30.24s24-10.95,37.21-3.19C1326.85,274.41,1331.36,287.6,1324.54,296.53Z" class="coloreff1f7 svgShape" opacity=".5"/><path fill="#102d47" d="M1340.28,197.33c-29.17,2.51-34,14.35-15.63,13.87S1359.34,195.69,1340.28,197.33Z" class="color160a0a svgShape"/><path fill="none" stroke="#000102" stroke-miterlimit="10" stroke-width="3" d="M1330.93,298.3c10.68,14.69,25.86,9.92,25.86,9.92" class="colorStroke020000 svgStroke"/><path fill="none" stroke="#000102" stroke-miterlimit="10" stroke-width="3" d="M1227.21,309.63c-6.45.46-8.16,14.31,5.82,18.17" class="colorStroke020000 svgStroke"/><path fill="#fff" d="M1820.27,2088.67a245.3,245.3,0,0,1-222.88,3.52L500,1554.06V2731.6a114.3,114.3,0,0,0,114.31,114.3H2705.18a114.3,114.3,0,0,0,114.31-114.3V1559Z" class="colorffffff svgShape"/><g class="color000000 svgShape" clip-path="url(#n)"><path fill="#eff3f7" d="M234.54,2034.2c333.36-580,1111.22,354.17,1572.84,110.88,1560.7-822.53-784.15-827.36-784.15-827.36L203.75,1214.83" class="coloreff1f7 svgShape"/><path fill="#eff3f7" d="M2819.49,1779.89c-44.48,1163-719.8,1058.13-2205.18,1066s2327,578,2327,578S3113.49,3317,3143.18,3311s-77.2-1757-77.2-1757" class="coloreff1f7 svgShape"/></g><path fill="none" stroke="#000102" stroke-miterlimit="10" stroke-width="3" d="M1820.27,2088.67a245.3,245.3,0,0,1-222.88,3.52L500,1554.06V2731.6a114.3,114.3,0,0,0,114.31,114.3H2705.18a114.3,114.3,0,0,0,114.31-114.3V1559Z" class="colorStroke020000 svgStroke"/><path fill="#fff" stroke="#000102" stroke-miterlimit="10" stroke-width="3" d="M1820.27,2088.67,2819.49,1559V1432a114.31,114.31,0,0,0-114.31-114.31H614.31A114.31,114.31,0,0,0,500,1432v122l1097.39,538.13A245.3,245.3,0,0,0,1820.27,2088.67Z" class="colorffffff svgShape colorStroke020000 svgStroke"/><path fill="none" stroke="#000102" stroke-miterlimit="10" stroke-width="3" d="M1196.62,1498.81l-102.94,95" class="colorStroke020000 svgStroke"/><path fill="none" stroke="#000102" stroke-miterlimit="10" stroke-width="3" d="M2368.46,2472.71,2313,2488.55" class="colorStroke020000 svgStroke"/><rect width="125.76" height="171.87" x="1475.64" y="755.96" fill="#0671d1" stroke="#000102" stroke-miterlimit="10" stroke-width="3" class="color06d1c3 svgShape colorStroke020000 svgStroke" rx="51.4"/><rect width="125.76" height="171.87" x="1475.64" y="953.41" fill="#0671d1" stroke="#000102" stroke-miterlimit="10" stroke-width="3" class="color06d1c3 svgShape colorStroke020000 svgStroke" rx="51.4"/><rect width="1377.32" height="2585.64" x="1508.34" y="284.49" fill="#0671d1" class="color06d1c3 svgShape" rx="177.03"/><rect width="1377.32" height="2585.64" x="1508.34" y="284.49" fill="none" stroke="#000102" stroke-miterlimit="10" stroke-width="3" class="colorStroke020000 svgStroke" rx="177.03"/><path fill="#fff" d="M2653.2,347.75h-90.15c-29,0-52.57,24-52.57,53.54h0c0,29.57-23.54,53.55-52.57,53.55H1936.09c-29,0-52.57-24-52.57-53.55h0c0-29.57-23.54-53.54-52.57-53.54H1740.8c-89.14,0-161.4,73.6-161.4,164.38V2604.27c0,90.79,72.26,164.38,161.4,164.38h912.4c89.14,0,161.4-73.59,161.4-164.38V512.13C2814.6,421.35,2742.34,347.75,2653.2,347.75Z" class="colorffffff svgShape"/><path fill="none" stroke="#000102" stroke-miterlimit="10" stroke-width="3" d="M2653.2,347.75h-90.15c-29,0-52.57,24-52.57,53.54h0c0,29.57-23.54,53.55-52.57,53.55H1936.09c-29,0-52.57-24-52.57-53.55h0c0-29.57-23.54-53.54-52.57-53.54H1740.8c-89.14,0-161.4,73.6-161.4,164.38V2604.27c0,90.79,72.26,164.38,161.4,164.38h912.4c89.14,0,161.4-73.59,161.4-164.38V512.13C2814.6,421.35,2742.34,347.75,2653.2,347.75Z" class="colorStroke020000 svgStroke"/><rect width="1053.23" height="1053.23" x="1670.38" y="663.63" fill="#fff" stroke="#000102" stroke-miterlimit="10" stroke-width="3" class="colorffffff svgShape colorStroke020000 svgStroke" rx="95.91"/><path fill="#fff" stroke="#000102" stroke-miterlimit="10" stroke-width="3" d="M1763.55,1164.75h408v-408h-408Zm102-306h204v204h-204Zm357-102v408h407.94v-408Zm306,306h-204v-204h204Zm-611.93-51h102v-102h-102Zm-153,611.93h408v-408h-408Zm102-306h204v204h-204Zm611.93-407.94h-102v102h102v-102Zm-255,713.91h102v-102h-102Zm102-306v204h102v-204Zm204,204h-102v102h204v-204h-102Zm0-204h102v-102h-102Zm-306-102v102h102v-102Zm-306,255h102v-102h-102Zm0,0" class="colorffffff svgShape colorStroke020000 svgStroke"/><rect width="1053.23" height="222.9" x="1670.38" y="1829.71" fill="#fff" stroke="#000102" stroke-miterlimit="10" stroke-width="3" class="colorffffff svgShape colorStroke020000 svgStroke" rx="111.45"/><rect width="1053.23" height="222.9" x="1670.38" y="2138.24" fill="#fff" stroke="#000102" stroke-miterlimit="10" stroke-width="3" class="colorffffff svgShape colorStroke020000 svgStroke" rx="111.45"/><path fill="none" stroke="#000102" stroke-miterlimit="10" stroke-width="3" d="M2569.38,2230.28a198.76,198.76,0,0,1-86.13,23.45" class="colorStroke020000 svgStroke"/><path fill="#fff" d="M2747,1526.57c3.44,60.07-15.47,113.84,29.69,170.55,30.06,32.52,50.43,9.94,16.42-13.63,30.49-39.57,7.15-117.35,12.09-176.7C2798.46,1495.81,2750.29,1524.65,2747,1526.57Z" class="colorffffff svgShape"/><g class="color000000 svgShape" clip-path="url(#o)"><path fill="#eff3f7" d="M2711.76,1609.81c55.06,14,40.18-42.38,114.69-39.92-8.31-11.12-113.7-32.43-122.63-6.07" class="coloreff1f7 svgShape"/></g><path fill="none" stroke="#000102" stroke-miterlimit="10" stroke-width="3" d="M2747,1526.57c3.44,60.07-15.47,113.84,29.69,170.55,30.06,32.52,50.43,9.94,16.42-13.63,30.49-39.57,7.15-117.35,12.09-176.7C2798.46,1495.81,2750.29,1524.65,2747,1526.57Z" class="colorStroke020000 svgStroke"/><polygon fill="#fff" points="2710.59 2687.45 2702.49 2808.34 2839.5 2783.27 2856.37 2633.65 2710.59 2687.45" class="colorffffff svgShape"/><g class="color000000 svgShape" clip-path="url(#p)"><path fill="#eff3f7" d="M2718.47,2698.25c-1.22,20.75,143.38,13.42,153.75,31.12s28.67-58,28.67-58l-42.71.61" class="coloreff1f7 svgShape"/></g><polygon fill="none" stroke="#000102" stroke-miterlimit="10" stroke-width="3" points="2710.59 2687.45 2702.49 2808.34 2839.5 2783.27 2856.37 2633.65 2710.59 2687.45" class="colorStroke020000 svgStroke"/><path fill="#fff" d="M2701.81,2753.79s-15.65,62-75.59,55.28c-107.54-12-94.49,76.66-94.49,76.66H2844.9V2759S2753.11,2778.11,2701.81,2753.79Z" class="colorffffff svgShape"/><g class="color000000 svgShape" clip-path="url(#q)"><rect width="382.54" height="67.72" x="2507.56" y="2869.66" fill="#fff" stroke="#000102" stroke-miterlimit="10" stroke-width="3" class="colorffffff svgShape colorStroke020000 svgStroke"/></g><path fill="none" stroke="#000102" stroke-miterlimit="10" stroke-width="3" d="M2701.81,2753.79s-15.65,62-75.59,55.28c-107.54-12-94.49,76.66-94.49,76.66H2844.9V2759S2753.11,2778.11,2701.81,2753.79Z" class="colorStroke020000 svgStroke"/><polygon fill="#fff" points="3154.38 2597.92 3174.67 2808.34 3037.66 2783.27 3032.26 2525.88 3154.38 2597.92" class="colorffffff svgShape"/><g class="color000000 svgShape" clip-path="url(#r)"><path fill="#eff3f7" d="M2988.31,2694.56c311.34-.83,69.11-63.79,24.16-48.92" class="coloreff1f7 svgShape"/></g><polygon fill="none" stroke="#000102" stroke-miterlimit="10" stroke-width="3" points="3154.38 2597.92 3174.67 2808.34 3037.66 2783.27 3032.26 2525.88 3154.38 2597.92" class="colorStroke020000 svgStroke"/><path fill="#fff" d="M3175.34,2753.79s15.66,62,75.59,55.28c107.54-12,94.49,76.66,94.49,76.66H3032.26V2759S3124.05,2778.11,3175.34,2753.79Z" class="colorffffff svgShape"/><g class="color000000 svgShape" clip-path="url(#s)"><rect width="367.48" height="50.33" x="3004.92" y="2869.66" fill="#fff" stroke="#000102" stroke-miterlimit="10" stroke-width="3" class="colorffffff svgShape colorStroke020000 svgStroke"/></g><path fill="none" stroke="#000102" stroke-miterlimit="10" stroke-width="3" d="M3175.34,2753.79s15.66,62,75.59,55.28c107.54-12,94.49,76.66,94.49,76.66H3032.26V2759S3124.05,2778.11,3175.34,2753.79Z" class="colorStroke020000 svgStroke"/><path fill="#fff" d="M3043.33,1397.58l-.14,19.78-199.7,19-11.52,75.4-93,608.13s-104,486.27-79.36,543.68,227.62,61.23,256.67-20.14c17.58-49.23,49.91-521,49.91-521l69.47-437.53c14.14,652.15-111.28,944-35.79,976.23,95,40.6,223.16-47.08,220.22-50.59.71-23.18,17-107.92,25.66-236.17,35.14-519.82,43.33-966.77,8.11-997.45S3043.33,1397.58,3043.33,1397.58Z" class="colorffffff svgShape"/><g class="color000000 svgShape" clip-path="url(#t)"><path fill="#eff3f7" d="M3005.53,1903.8c6.5-37.38,22-121.4,28.72-197.33,2.95-33.6,2-83.65,1.45-96.66.55,12.82-127.7,435.2-91.51,512.64s42.3,0,42.3,0" class="coloreff1f7 svgShape"/><path fill="#eff3f7" d="M2589.12,1739.54c353.87,19.52,202.56-233.76,400.24-235.24s292.44-99.11,292.44-99.11l-292.44-46.37-346.55,51.25" class="coloreff1f7 svgShape"/><polyline fill="none" stroke="#020000" stroke-miterlimit="10" stroke-width="3" points="2719.58 2718.7 2767.47 2122.45 2874.69 1463.64"/><path fill="#447199" stroke="#000102" stroke-miterlimit="10" stroke-width="3" d="M3144.59,2819.76c13.79-355.25,54.59-1070.68,80.42-1425.18" class="color449960 svgShape colorStroke020000 svgStroke"/></g><path fill="none" stroke="#000102" stroke-miterlimit="10" stroke-width="3" d="M3043.33,1397.58l-.14,19.78-199.7,19-11.52,75.4-93,608.13s-104,486.27-79.36,543.68,227.62,61.23,256.67-20.14c17.58-49.23,49.91-521,49.91-521l69.47-437.53c14.14,652.15-111.28,944-35.79,976.23,95,40.6,223.16-47.08,220.22-50.59.71-23.18,17-107.92,25.66-236.17,35.14-519.82,43.33-966.77,8.11-997.45S3043.33,1397.58,3043.33,1397.58Z" class="colorStroke020000 svgStroke"/><path fill="#fff" d="M3249.55,1652.22l6.51-40.77c-94-8.81,1.19-234.59-126.82-215.54.05.14,6.18,35.82,7,40.68C3202.39,1459.93,3124.33,1641,3249.55,1652.22Z" class="colorffffff svgShape"/><g class="color000000 svgShape" clip-path="url(#u)"><path fill="#fff" stroke="#000102" stroke-miterlimit="10" stroke-width="3" d="M3233.37,1585.45l-8.36,80,65.32,3c-3.69-26.69,10.91-90.87-36.17-79" class="colorffffff svgShape colorStroke020000 svgStroke"/></g><path fill="none" stroke="#000102" stroke-miterlimit="10" stroke-width="3" d="M3249.55,1652.22l6.51-40.77c-94-8.81,1.19-234.59-126.82-215.54.05.14,6.18,35.82,7,40.68C3202.39,1459.93,3124.33,1641,3249.55,1652.22Z" class="colorStroke020000 svgStroke"/><path fill="#2693f5" d="M2684.27,1559.27c213.07,28,138.3-17.33,163.09-219.73,3.39-31.93,2.46-201,2.49-264.19.76-.49,21.91-167.19-58.49-133.7C2662.44,995.36,2613.57,1434.21,2684.27,1559.27Z" class="color2660f5 svgShape"/><g class="color000000 svgShape" clip-path="url(#v)"><path fill="#075ca8" d="M2778.36,1201.13c-159.56,51.25,121.25,402.22,15.2,407.69-199.8,10.32-65.43,56.47-46.93,64.91s180.61-21.94,180.61-21.94l8.1-295.09-155.69-263.39" class="color0749a8 svgShape"/></g><path fill="none" stroke="#000102" stroke-miterlimit="10" stroke-width="3" d="M2684.27,1559.27c213.07,28,138.3-17.33,163.09-219.73,3.39-31.93,2.46-201,2.49-264.19.76-.49,21.91-167.19-58.49-133.7C2662.44,995.36,2613.57,1434.21,2684.27,1559.27Z" class="colorStroke020000 svgStroke"/><path fill="#2693f5" d="M2770.43,1139.49l9.22,322.81c82.8,53.65,490.87,7.12,523.8-47.47s-73-501.25-110.29-524.42c-6.85-4.25-185.92-78.52-401.8,51.24-16.15,9.71-31.27,16.51-24.25,58.61" class="color2660f5 svgShape"/><g class="color000000 svgShape" clip-path="url(#w)"><path fill="#fff" stroke="#000102" stroke-miterlimit="10" stroke-width="3" d="M3066.22,894.72c-4.15,123.46-165.24,128.85-183.86,14.54C2865.66,766.7,3063.82,761.56,3066.22,894.72Z" class="colorffffff svgShape colorStroke020000 svgStroke"/><path fill="#fff" stroke="#000102" stroke-miterlimit="10" stroke-width="3" d="M3056.33,875.48c-4.71,100.76-163.33,95.79-166.89,0C2894.15,774.73,3052.76,779.69,3056.33,875.48Z" class="colorffffff svgShape colorStroke020000 svgStroke"/><path fill="#075ca8" d="M3167.76,1082.34c-69.73,15.06,267.82,515.19-388.11,380-235.5-136.57-14.39,109.06-14.39,109.06l443.65,22.71,192.58-287.29-108-177.7S3237.49,1067.27,3167.76,1082.34Z" class="color0749a8 svgShape"/></g><path fill="none" stroke="#000102" stroke-miterlimit="10" stroke-width="3" d="M2770.43,1139.49l9.22,322.81c82.8,53.65,490.87,7.12,523.8-47.47s-73-501.25-110.29-524.42c-6.85-4.25-185.92-78.52-401.8,51.24-16.15,9.71-31.27,16.51-24.25,58.61" class="colorStroke020000 svgStroke"/><path fill="#fff" d="M2906,900.31c-.1-5.36.47-5.37.38-10.73s-.49-5.35-.59-10.71.19-5.37.09-10.73-.24-5.35-.33-10.71-.43-5.36-.53-10.72.47-5.36.37-10.72-.48-5.35-.58-10.71-.09-5.36-.19-10.72.06-5.37,0-10.73-.31-5.35-.41-10.71-.06-5.37-.16-10.73-1.61-5.58.16-10.65c3.94,0,7.52-.19,11.24-.28,3.94-.1,7.75-.34,11.45-.55,4-.23,7.77-.4,11.45-.74,4-.37,7.8-.44,11.45-.92,3.95-.53,7.71-1.32,11.32-2,4-.69,7.74-1.25,11.3-2.07,3.93-.89,7.48-2.43,11-3.43,3.9-1.12,7.66-1.91,11-3.12,3.88-1.39,7.33-3,10.57-4.46,3.86-1.7,7.47-3,10.51-4.65,3.89-2.1,6.9-4.52,9.62-6.27,4.63-3,7.71-5.29,9.7-6.16,3.12-1.36,3.59.86,3.41,8.84-.07,3,0,6.74-.2,11.46-.08,2.25-.29,6.06-.23,11,0,3.22.28,6.91.37,11,.07,3.43-.1,7.12,0,11,.09,3.52.55,7.19.66,11,.11,3.58-.11,7.27,0,11s.68,7.29.81,11,.34,7.36.48,11-.27,7.43-.13,11c.16,3.81.75,7.46.91,10.95.17,3.92.14,7.62.3,11,.21,4.23.3,8,.49,11" class="colorffffff svgShape"/><g class="color000000 svgShape" clip-path="url(#x)"><path fill="#eff3f7" d="M2834.13,905.14c3.84-.72,7.57-1.56,11.24-2.27,3.85-.75,7.62-1.38,11.28-2.12,3.84-.77,7.56-1.68,11.2-2.44,3.85-.8,7.49-2,11.12-2.83,3.85-.84,7.7-1.17,11.31-2,3.85-.88,7.48-2.13,11.07-3q5.79-1.38,11.13-2.74c3.87-1,7.58-1.89,11.11-2.84,3.87-1,7.62-1.83,11.12-2.84,3.88-1.13,7.41-2.62,10.85-3.72,3.9-1.23,7.48-2.52,10.84-3.71,3.92-1.39,7.58-2.47,10.82-3.79,4-1.61,7.5-3,10.53-4.54a77.29,77.29,0,0,0,9.93-5.75c4.2-2.92,6.81-5.63,8.13-8.06,2.33-4.31.91-8.12-1.61-10.77-3.68-3.88-10.13-5.77-10.13-5.77-.05.31-3.47-1.67-8.94-5.43-2.55-1.75-5.26-4.2-8.53-6.5-2.74-1.93-5.95-3.63-9-5.8-2.83-2-5.62-4.31-8.58-6.43s-5.72-4.3-8.61-6.38-6-4.06-8.82-6.09c-3.05-2.2-5.91-4.4-8.62-6.36l-8.68-6.29c-6.19-4.48-9.58-6.85-7.66-5.45-.32,3.73-.76,7.36-1.34,10.93s-1.21,7.33-2.05,10.86-1.7,7.23-2.81,10.69-2.79,6.88-4.14,10.25-2.53,7-4.12,10.26-3.44,6.56-5.24,9.74-3.83,6.33-5.8,9.4-4,6.24-6.12,9.2-4.52,5.87-6.76,8.73-4.59,5.84-6.93,8.6-4.84,5.64-7.26,8.33-5,5.47-7.5,8.11" class="coloreff1f7 svgShape"/></g><path fill="none" stroke="#000102" stroke-miterlimit="10" stroke-width="3" d="M2906,900.31c-.1-5.36.47-5.37.38-10.73s-.49-5.35-.59-10.71.19-5.37.09-10.73-.24-5.35-.33-10.71-.43-5.36-.53-10.72.47-5.36.37-10.72-.48-5.35-.58-10.71-.09-5.36-.19-10.72.06-5.37,0-10.73-.31-5.35-.41-10.71-.06-5.37-.16-10.73-1.61-5.58.16-10.65c3.94,0,7.52-.19,11.24-.28,3.94-.1,7.75-.34,11.45-.55,4-.23,7.77-.4,11.45-.74,4-.37,7.8-.44,11.45-.92,3.95-.53,7.71-1.32,11.32-2,4-.69,7.74-1.25,11.3-2.07,3.93-.89,7.48-2.43,11-3.43,3.9-1.12,7.66-1.91,11-3.12,3.88-1.39,7.33-3,10.57-4.46,3.86-1.7,7.47-3,10.51-4.65,3.89-2.1,6.9-4.52,9.62-6.27,4.63-3,7.71-5.29,9.7-6.16,3.12-1.36,3.59.86,3.41,8.84-.07,3,0,6.74-.2,11.46-.08,2.25-.29,6.06-.23,11,0,3.22.28,6.91.37,11,.07,3.43-.1,7.12,0,11,.09,3.52.55,7.19.66,11,.11,3.58-.11,7.27,0,11s.68,7.29.81,11,.34,7.36.48,11-.27,7.43-.13,11c.16,3.81.75,7.46.91,10.95.17,3.92.14,7.62.3,11,.21,4.23.3,8,.49,11" class="colorStroke020000 svgStroke"/><path fill="#000102" d="M2872.65,712.25c-.1-2.44-.29-6.18-.89-10.88-.41-3.18-1-6.81-1.45-10.81-.4-3.38-1-7-1.35-10.83-.33-3.47-.81-7.1-1-10.86-.23-3.54-.14-7.2-.23-10.92s-.41-7.23-.34-10.92.2-7.27.48-10.92,1.22-7.18,1.73-10.79,1.29-7.15,2.08-10.69,1.38-7.17,2.5-10.61a96.37,96.37,0,0,1,4.23-10,82.16,82.16,0,0,1,4.73-9.82,72.31,72.31,0,0,1,6.69-8.59,75,75,0,0,1,16.4-14.16,72.19,72.19,0,0,1,9.68-5,82.84,82.84,0,0,1,10.33-3.49,99.6,99.6,0,0,1,10.69-2.12c3.45-.53,7.05-.92,10.83-1.15,3.5-.21,7.12-.37,10.91-.31s7.41.27,10.9.54c3.78.3,7.45.31,10.91.84,3.75.58,7.32,1.39,10.71,2.22a101.39,101.39,0,0,1,10.36,3.49,86.52,86.52,0,0,1,9.95,4.41,77.31,77.31,0,0,1,9.45,5.44,70.08,70.08,0,0,1,8.5,6.88,71.19,71.19,0,0,1,7.13,8.29,76.57,76.57,0,0,1,5.46,9.44,87.35,87.35,0,0,1,4.57,9.87c1.31,3.38,3,6.65,4,10.18s1.61,7.11,2.25,10.7.63,7.27,1,10.88.86,7.25,1.06,10.86.15,7.32.19,10.92,0,7.35,0,10.91c-.06,3.75.35,7.41.25,10.93-.11,3.81-.82,7.45-.89,10.9-.09,3.92.5,7.59.59,10.92.1,4.17,0,7.87.56,10.89a10.1,10.1,0,0,1-3.39,10.17c-2.37,2.07-5.91,3.61-10,5.05a84,84,0,0,1-10.92,2.56c-3.45.68-7.14,1.27-11.07,1.74-3.57.43-7.26,1.29-11.13,1.57-3.64.26-7.4.47-11.22.61s-7.45.29-11.23.33-7.48-.55-11.23-.59-7.52.17-11.24.07-7.53-.58-11.21-.73-7.6,0-11.23-.18c-3.9-.21-7.66-.22-11.23-.46-4-.27-7.72-1-11.17-1.26-4.23-.33-8-.32-11.22-.6-7-.63-11-1.18-11-1.18" class="color020000 svgShape"/><path fill="none" stroke="#000102" stroke-miterlimit="10" stroke-width="3" d="M2872.65,712.25c-.1-2.44-.29-6.18-.89-10.88-.41-3.18-1-6.81-1.45-10.81-.4-3.38-1-7-1.35-10.83-.33-3.47-.81-7.1-1-10.86-.23-3.54-.14-7.2-.23-10.92s-.41-7.23-.34-10.92.2-7.27.48-10.92,1.22-7.18,1.73-10.79,1.29-7.15,2.08-10.69,1.38-7.17,2.5-10.61a96.37,96.37,0,0,1,4.23-10,82.16,82.16,0,0,1,4.73-9.82,72.31,72.31,0,0,1,6.69-8.59,75,75,0,0,1,16.4-14.16,72.19,72.19,0,0,1,9.68-5,82.84,82.84,0,0,1,10.33-3.49,99.6,99.6,0,0,1,10.69-2.12c3.45-.53,7.05-.92,10.83-1.15,3.5-.21,7.12-.37,10.91-.31s7.41.27,10.9.54c3.78.3,7.45.31,10.91.84,3.75.58,7.32,1.39,10.71,2.22a101.39,101.39,0,0,1,10.36,3.49,86.52,86.52,0,0,1,9.95,4.41,77.31,77.31,0,0,1,9.45,5.44,70.08,70.08,0,0,1,8.5,6.88,71.19,71.19,0,0,1,7.13,8.29,76.57,76.57,0,0,1,5.46,9.44,87.35,87.35,0,0,1,4.57,9.87c1.31,3.38,3,6.65,4,10.18s1.61,7.11,2.25,10.7.63,7.27,1,10.88.86,7.25,1.06,10.86.15,7.32.19,10.92,0,7.35,0,10.91c-.06,3.75.35,7.41.25,10.93-.11,3.81-.82,7.45-.89,10.9-.09,3.92.5,7.59.59,10.92.1,4.17,0,7.87.56,10.89a10.1,10.1,0,0,1-3.39,10.17c-2.37,2.07-5.91,3.61-10,5.05a84,84,0,0,1-10.92,2.56c-3.45.68-7.14,1.27-11.07,1.74-3.57.43-7.26,1.29-11.13,1.57-3.64.26-7.4.47-11.22.61s-7.45.29-11.23.33-7.48-.55-11.23-.59-7.52.17-11.24.07-7.53-.58-11.21-.73-7.6,0-11.23-.18c-3.9-.21-7.66-.22-11.23-.46-4-.27-7.72-1-11.17-1.26-4.23-.33-8-.32-11.22-.6-7-.63-11-1.18-11-1.18" class="colorStroke020000 svgStroke"/><path fill="#fff" d="M2964.05,838.5V839a72.47,72.47,0,0,1-22.2-3.35c-3.59-1.14-6.81-3.15-10.15-4.81a74.59,74.59,0,0,1-9.79-5.42,77.42,77.42,0,0,1-8.65-7.13,80.43,80.43,0,0,1-7.86-8,97.35,97.35,0,0,1-17.66-40.9,87.26,87.26,0,0,1-.5-11.26c-.1-5.44.37-5.45.25-10.9s-.13-5.44-.25-10.89-.43-5.43-.56-10.88-.19-5.44-.31-10.88.12-5.46,0-10.9-.76-5.43-.89-10.88.4-5.45.27-10.9-.31-5.44-.43-10.88,0-5.45-.15-10.89-.42-5.44-.54-10.89-.12-5.44-.25-10.89-.24-5.44-.37-10.89.69-5.47.57-10.92-4.41-6.95-.59-10.84,5.42-.1,10.89-.1,5.47.25,10.94.25,5.47-.26,10.94-.26,5.48.08,10.95.08h10.94c5.47,0,5.47.2,10.95.2s5.47-.21,10.94-.21,5.47.28,10.94.28,5.47-.48,10.94-.48,5.47,0,10.95,0,5.47.3,10.94.3,5.48.34,11,.34,5.47-.46,10.95-.46,7-3.71,10.9.11.21,5.39.34,10.83.28,5.44.4,10.89-.35,5.45-.23,10.9.69,5.43.82,10.87.1,5.45.23,10.9.31,5.44.44,10.88-.13,5.45,0,10.9.36,5.44.48,10.88-.16,5.45,0,10.89.33,5.44.45,10.89-.51,5.46-.39,10.91.68,5.43.81,10.88-.14,5.45,0,10.9.1,5.45.19,10.9a87.37,87.37,0,0,1-.31,11.25c-.49,3.76-1.75,7.35-2.72,10.92a65.54,65.54,0,0,1-8.69,20.61c-1.93,3.24-3.6,6.68-5.93,9.58s-5.52,5.13-8.24,7.68a77.55,77.55,0,0,1-8.43,7.39,75,75,0,0,1-9.72,5.62c-3.34,1.66-6.65,3.57-10.24,4.71a70.84,70.84,0,0,1-22.26,2.62Z" class="colorffffff svgShape"/><g class="color000000 svgShape" clip-path="url(#y)"><path fill="#eff3f7" d="M2878,679.81c4-.25,6.68-2.86,8.8-6.7a64.85,64.85,0,0,0,4.31-10.61c1.13-3.38,2.31-7,3.72-10.84a88.16,88.16,0,0,1,4.32-10.63,59.41,59.41,0,0,1,6.45-9.47,49.84,49.84,0,0,1,8-8.15,52.27,52.27,0,0,1,9.77-6,64.7,64.7,0,0,1,10.85-3.7,84.31,84.31,0,0,1,11.25-2.07,110.27,110.27,0,0,1,11.4-1c3.6-.09,7.42-.06,11.46.15s7.67.4,10.79.52c4.56.18,8.11.26,10.79.25,8.3,0,8-.84,2.78-2.16-2.51-.63-6.1-1.66-10.5-2.45-3.21-.58-6.84-1-10.68-1.61-3.4-.55-7-1-10.68-1.56-3.51-.54-7.08-1.23-10.65-1.75s-7.21-1-10.69-1.49c-3.73-.52-7.35-.91-10.71-1.37-4-.55-7.57-1.24-10.67-1.65-6.53-.88-5.86-3.67-10.79-1.48s-4.47,3.21-8.92,6.38-4.41,3.22-8.86,6.39-4.25,3.46-8.7,6.63-4.54,3-9,6.21" class="coloreff1f7 svgShape"/></g><path fill="none" stroke="#000102" stroke-miterlimit="10" stroke-width="3" d="M2964.05,838.5V839a72.47,72.47,0,0,1-22.2-3.35c-3.59-1.14-6.81-3.15-10.15-4.81a74.59,74.59,0,0,1-9.79-5.42,77.42,77.42,0,0,1-8.65-7.13,80.43,80.43,0,0,1-7.86-8,97.35,97.35,0,0,1-17.66-40.9,87.26,87.26,0,0,1-.5-11.26c-.1-5.44.37-5.45.25-10.9s-.13-5.44-.25-10.89-.43-5.43-.56-10.88-.19-5.44-.31-10.88.12-5.46,0-10.9-.76-5.43-.89-10.88.4-5.45.27-10.9-.31-5.44-.43-10.88,0-5.45-.15-10.89-.42-5.44-.54-10.89-.12-5.44-.25-10.89-.24-5.44-.37-10.89.69-5.47.57-10.92-4.41-6.95-.59-10.84,5.42-.1,10.89-.1,5.47.25,10.94.25,5.47-.26,10.94-.26,5.48.08,10.95.08h10.94c5.47,0,5.47.2,10.95.2s5.47-.21,10.94-.21,5.47.28,10.94.28,5.47-.48,10.94-.48,5.47,0,10.95,0,5.47.3,10.94.3,5.48.34,11,.34,5.47-.46,10.95-.46,7-3.71,10.9.11.21,5.39.34,10.83.28,5.44.4,10.89-.35,5.45-.23,10.9.69,5.43.82,10.87.1,5.45.23,10.9.31,5.44.44,10.88-.13,5.45,0,10.9.36,5.44.48,10.88-.16,5.45,0,10.89.33,5.44.45,10.89-.51,5.46-.39,10.91.68,5.43.81,10.88-.14,5.45,0,10.9.1,5.45.19,10.9a87.37,87.37,0,0,1-.31,11.25c-.49,3.76-1.75,7.35-2.72,10.92a65.54,65.54,0,0,1-8.69,20.61c-1.93,3.24-3.6,6.68-5.93,9.58s-5.52,5.13-8.24,7.68a77.55,77.55,0,0,1-8.43,7.39,75,75,0,0,1-9.72,5.62c-3.34,1.66-6.65,3.57-10.24,4.71a70.84,70.84,0,0,1-22.26,2.62Z" class="colorStroke020000 svgStroke"/><path fill="#000102" d="M2887.47,696.73c.05-3.49-.36-7.3-.47-11.34-.1-3.65-.36-7.48-.33-11.38,0-3.74.64-7.53,1-11.34a77.21,77.21,0,0,1,2-11.16,54.6,54.6,0,0,1,3.4-10.82,45,45,0,0,1,6.15-9.6,45.71,45.71,0,0,1,8.66-7.35,54.81,54.81,0,0,1,9.74-5.88c3.24-1.4,7-2.14,10.93-3.18a101.06,101.06,0,0,1,11.14-2.16c3.53-.52,7.25-1.18,11.26-1.43,3.59-.23,7.37-.47,11.37-.47s7.82.06,11.41.33c4,.31,7.76,1,11.28,1.61a89.53,89.53,0,0,1,11.06,2.71,67.58,67.58,0,0,1,10.5,4.32,55.48,55.48,0,0,1,9.82,5.78c3.1,2.5,5.35,5.6,7.59,8.48,2.4,3.09,4.83,6.06,6.42,9.41a64.81,64.81,0,0,1,3.87,10.76,89.32,89.32,0,0,1,1.82,11.26c.56,4,1.21,7.75,1.46,11.3.3,4.27.58,8.13.92,11.34.88,8.56,2.88,8.19,5.05,4.29,1.45-2.6,2.62-6.9,3.9-10.87,1.85-5.7,3.11-5.25,3.08-11,0-5.61-.73-5.52-1.46-11.09s-.3-5.62-1-11.18-.68-5.57-1.4-11.14-.71-5.57-1.43-11.14-.62-5.58-1.34-11.15-.84-5.56-1.57-11.13,2.37-7.15-1.48-11.24c-3.68-3.9-5.44-.66-10.74-1.49s-5.31-.71-10.61-1.54l-10.6-1.66c-5.29-.83-5.28-.93-10.57-1.76s-5.28-1-10.57-1.83-5.34-.6-10.63-1.43-5.25-1.2-10.55-2-5.37-.36-10.67-1.19-5.22-1.35-10.52-2.18-5.31-2-10.66-1.59c-6,.5-5.62,2.17-11.32,3.93s-5.83,1.36-11.53,3.13-5.68,1.85-11.38,3.62-7-.46-11.41,3.59c-4.67,4.3-2.39,5.91-4.92,11.73s-2.81,5.71-5.35,11.53-4.23,5.4-5,11.71c-.64,5.16,1,5.14,2.17,10.21s1.51,5,2.68,10.06.81,5.15,2,10.22,1.52,5,2.69,10.05,1.52,5,2.32,10.15.22,5.34.63,10.66S2886.77,691.44,2887.47,696.73Z" class="color020000 svgShape"/><path fill="none" stroke="#000102" stroke-miterlimit="10" stroke-width="3" d="M2887.47,696.73c.05-3.49-.36-7.3-.47-11.34-.1-3.65-.36-7.48-.33-11.38,0-3.74.64-7.53,1-11.34a77.21,77.21,0,0,1,2-11.16,54.6,54.6,0,0,1,3.4-10.82,45,45,0,0,1,6.15-9.6,45.71,45.71,0,0,1,8.66-7.35,54.81,54.81,0,0,1,9.74-5.88c3.24-1.4,7-2.14,10.93-3.18a101.06,101.06,0,0,1,11.14-2.16c3.53-.52,7.25-1.18,11.26-1.43,3.59-.23,7.37-.47,11.37-.47s7.82.06,11.41.33c4,.31,7.76,1,11.28,1.61a89.53,89.53,0,0,1,11.06,2.71,67.58,67.58,0,0,1,10.5,4.32,55.48,55.48,0,0,1,9.82,5.78c3.1,2.5,5.35,5.6,7.59,8.48,2.4,3.09,4.83,6.06,6.42,9.41a64.81,64.81,0,0,1,3.87,10.76,89.32,89.32,0,0,1,1.82,11.26c.56,4,1.21,7.75,1.46,11.3.3,4.27.58,8.13.92,11.34.88,8.56,2.88,8.19,5.05,4.29,1.45-2.6,2.62-6.9,3.9-10.87,1.85-5.7,3.11-5.25,3.08-11,0-5.61-.73-5.52-1.46-11.09s-.3-5.62-1-11.18-.68-5.57-1.4-11.14-.71-5.57-1.43-11.14-.62-5.58-1.34-11.15-.84-5.56-1.57-11.13,2.37-7.15-1.48-11.24c-3.68-3.9-5.44-.66-10.74-1.49s-5.31-.71-10.61-1.54l-10.6-1.66c-5.29-.83-5.28-.93-10.57-1.76s-5.28-1-10.57-1.83-5.34-.6-10.63-1.43-5.25-1.2-10.55-2-5.37-.36-10.67-1.19-5.22-1.35-10.52-2.18-5.31-2-10.66-1.59c-6,.5-5.62,2.17-11.32,3.93s-5.83,1.36-11.53,3.13-5.68,1.85-11.38,3.62-7-.46-11.41,3.59c-4.67,4.3-2.39,5.91-4.92,11.73s-2.81,5.71-5.35,11.53-4.23,5.4-5,11.71c-.64,5.16,1,5.14,2.17,10.21s1.51,5,2.68,10.06.81,5.15,2,10.22,1.52,5,2.69,10.05,1.52,5,2.32,10.15.22,5.34.63,10.66S2886.77,691.44,2887.47,696.73Z" class="colorStroke020000 svgStroke"/><path fill="#fff" d="M2897.28,682.44a65.57,65.57,0,0,0-9.19-5.82,41.48,41.48,0,0,0-10.22-3.73,26.19,26.19,0,0,0-10.83.1,22.34,22.34,0,0,0-9.72,4.69,27.63,27.63,0,0,0-6.62,8.55,37,37,0,0,0-3.51,10.26,45.56,45.56,0,0,0-.66,10.83,48.78,48.78,0,0,0,1.6,10.75,49.54,49.54,0,0,0,4.28,10,46.81,46.81,0,0,0,6.16,8.93,47.59,47.59,0,0,0,8,7.36,51.78,51.78,0,0,0,9.61,5.11,58.39,58.39,0,0,0,10.35,3.35,71,71,0,0,0,10.79,1.39" class="colorffffff svgShape"/><path fill="none" stroke="#000102" stroke-miterlimit="10" stroke-width="3" d="M2897.28,682.44a65.57,65.57,0,0,0-9.19-5.82,41.48,41.48,0,0,0-10.22-3.73,26.19,26.19,0,0,0-10.83.1,22.34,22.34,0,0,0-9.72,4.69,27.63,27.63,0,0,0-6.62,8.55,37,37,0,0,0-3.51,10.26,45.56,45.56,0,0,0-.66,10.83,48.78,48.78,0,0,0,1.6,10.75,49.54,49.54,0,0,0,4.28,10,46.81,46.81,0,0,0,6.16,8.93,47.59,47.59,0,0,0,8,7.36,51.78,51.78,0,0,0,9.61,5.11,58.39,58.39,0,0,0,10.35,3.35,71,71,0,0,0,10.79,1.39" class="colorStroke020000 svgStroke"/><path fill="#fff" d="M3030.79,682.41a65.4,65.4,0,0,1,9.2-5.8,41.54,41.54,0,0,1,10.23-3.73,26.17,26.17,0,0,1,10.81.2,22.34,22.34,0,0,1,9.78,4.55,28,28,0,0,1,6.76,8.51,38,38,0,0,1,3.47,10.32,45.9,45.9,0,0,1,.5,10.86,46.5,46.5,0,0,1-5.89,20.72,42.31,42.31,0,0,1-14.32,16.07,50.46,50.46,0,0,1-9.39,5.46,58.79,58.79,0,0,1-10.39,3.27,72.76,72.76,0,0,1-10.8,1.34" class="colorffffff svgShape"/><path fill="none" stroke="#000102" stroke-miterlimit="10" stroke-width="3" d="M3030.79,682.41a65.4,65.4,0,0,1,9.2-5.8,41.54,41.54,0,0,1,10.23-3.73,26.17,26.17,0,0,1,10.81.2,22.34,22.34,0,0,1,9.78,4.55,28,28,0,0,1,6.76,8.51,38,38,0,0,1,3.47,10.32,45.9,45.9,0,0,1,.5,10.86,46.5,46.5,0,0,1-5.89,20.72,42.31,42.31,0,0,1-14.32,16.07,50.46,50.46,0,0,1-9.39,5.46,58.79,58.79,0,0,1-10.39,3.27,72.76,72.76,0,0,1-10.8,1.34" class="colorStroke020000 svgStroke"/><path fill="#fff" d="M2944.48,706.81a38,38,0,0,1-1.13,10.18,21.38,21.38,0,0,1-4.58,9.08,13,13,0,0,1-8.93,4.51,13.42,13.42,0,0,1-9.45-3.32,21.09,21.09,0,0,1-5.77-8.36,34,34,0,0,1-2.29-9.95,37.67,37.67,0,0,1,1.06-10.16,21.71,21.71,0,0,1,4.52-9.14,13.21,13.21,0,0,1,9-4.55,13.59,13.59,0,0,1,9.45,3.43,21.07,21.07,0,0,1,5.89,8.29A34.67,34.67,0,0,1,2944.48,706.81Z" class="colorffffff svgShape"/><g class="color000000 svgShape" clip-path="url(#z)"><path fill="#102d47" d="M2940.71,703.63c-.14,4.53-1.62,7.84-3.64,9.77a6.49,6.49,0,0,1-9.54-.1c-1.87-1.93-3.22-5.19-3.43-9.86.14-4.53,1.62-7.8,3.64-9.73a6.38,6.38,0,0,1,9.45.11C2939.07,695.74,2940.5,699,2940.71,703.63Z" class="color160a0a svgShape"/></g><path fill="#fff" d="M3016.42,706.82a38.49,38.49,0,0,1-1,10.18,21.47,21.47,0,0,1-4.65,9.06,13.12,13.12,0,0,1-8.91,4.58,13.5,13.5,0,0,1-9.42-3.42,21.16,21.16,0,0,1-5.78-8.33,34,34,0,0,1-2.46-9.93,37.55,37.55,0,0,1,1.27-10.16,21.42,21.42,0,0,1,4.54-9.07,13,13,0,0,1,8.89-4.58,13.51,13.51,0,0,1,9.42,3.4,21,21,0,0,1,5.81,8.32A34,34,0,0,1,3016.42,706.82Z" class="colorffffff svgShape"/><g class="color000000 svgShape" clip-path="url(#A)"><path fill="#102d47" d="M3012.71,703.63c-.14,4.53-1.62,7.79-3.64,9.73a6.46,6.46,0,0,1-9.52-.05c-1.87-1.93-3.2-5.2-3.41-9.87.14-4.53,1.6-7.81,3.62-9.75a6.42,6.42,0,0,1,9.48.12C3011.11,695.73,3012.5,699,3012.71,703.63Z" class="color160a0a svgShape"/></g><path fill="none" stroke="#000102" stroke-miterlimit="10" stroke-width="3" d="M2952.52,783.29a24.08,24.08,0,0,0,10,6,20.39,20.39,0,0,0,11.61-.19c6.1-1.86,5.94-1.67,10.21-5.73" class="colorStroke020000 svgStroke"/><path fill="none" stroke="#000102" stroke-miterlimit="10" stroke-width="3" d="M2874,698.91c-3.13-.28-5.71,3-6.46,7.52a16.69,16.69,0,0,0,1.72,10.55,18.46,18.46,0,0,0,7.75,7.42" class="colorStroke020000 svgStroke"/><path fill="none" stroke="#000102" stroke-miterlimit="10" stroke-width="3" d="M3054.37,698.91c3.13-.27,5.76,3,6.51,7.51a16.69,16.69,0,0,1-1.83,10.52,18.42,18.42,0,0,1-7.69,7.46" class="colorStroke020000 svgStroke"/><path fill="#102d47" d="M3016.32,655.9a102.5,102.5,0,0,0-10.72-.44,65.6,65.6,0,0,0-10.66,1.11,28.92,28.92,0,0,0-10.08,3.42c-4.14,2.64-4.56,6-1,8.53,2,1.49,5.39,2.72,10.08,3.44A42.56,42.56,0,0,0,3006,672a43.41,43.41,0,0,0,11.64-3.25c5.13-2.29,8.46-5.33,8.59-7.87S3023.51,656.5,3016.32,655.9Z" class="color160a0a svgShape"/><path fill="#102d47" d="M2936.66,665.19a105.56,105.56,0,0,0-10.55-2,65.54,65.54,0,0,0-10.72-.52,28.4,28.4,0,0,0-10.49,2c-4.44,2-5.26,5.32-2.08,8.38,1.83,1.76,5,3.47,9.51,4.85a42.82,42.82,0,0,0,23.89.2c5.42-1.53,9.23-4,9.64-6.49S2943.64,666.81,2936.66,665.19Z" class="color160a0a svgShape"/><path fill="#eff3f7" d="M2977.16,745.44a28.88,28.88,0,0,1-3.07-9.61c-.59-3.46-.91-7-1.43-10-.82-4.77-2-8-5.19-7.2-3.19-.84-4,2.5-4.42,7.35-.25,3-.4,6.52-.79,9.95s-1.1,7-2.63,9.54c-2.46,4.18-2.18,7.65-.54,10.1,1.95,2.9,5.87,4.41,9.28,4.41,0,0,0,.08,0,.08h0c3.41,0,7.29-1.6,9.24-4.5C2979.32,753.06,2979.62,749.62,2977.16,745.44Z" class="coloreff1f7 svgShape"/><path fill="#eff3f7" d="M2936.51,746.15a18.7,18.7,0,0,1-.73,10.79,22.25,22.25,0,0,1-6.17,9A24.1,24.1,0,0,1,2920,771a23.09,23.09,0,0,1-10.63.45,20.09,20.09,0,0,1-9.47-4.82,17.76,17.76,0,0,1-5.34-9.15,18.89,18.89,0,0,1,.83-10.79,22.24,22.24,0,0,1,6.14-9,24.12,24.12,0,0,1,9.62-5.12,22.81,22.81,0,0,1,10.62-.28,20,20,0,0,1,9.49,4.72A17.68,17.68,0,0,1,2936.51,746.15Z" class="coloreff1f7 svgShape" opacity=".5"/><path fill="#eff3f7" d="M2992.22,746.15a18.8,18.8,0,0,0,.78,10.79,22.13,22.13,0,0,0,6.2,8.9,23.85,23.85,0,0,0,9.61,5.06,22.73,22.73,0,0,0,10.59.37,20,20,0,0,0,9.48-4.7,17.72,17.72,0,0,0,5.24-9.15,18.65,18.65,0,0,0-.75-10.75,22.06,22.06,0,0,0-6.12-9,24,24,0,0,0-9.62-5.07,23,23,0,0,0-10.63-.46,20,20,0,0,0-9.44,4.85A17.74,17.74,0,0,0,2992.22,746.15Z" class="coloreff1f7 svgShape" opacity=".5"/><path fill="#2693f5" stroke="#000102" stroke-miterlimit="10" stroke-width="3" d="M3167.76,1082.34c6.52,4,59.59,179.43,165.16,200.37s42.47-227.2,42.47-227.2S3249.75,914,3193.16,890.41" class="color2660f5 svgShape colorStroke020000 svgStroke"/><path fill="#fff" d="M3324.47,722.16c19.68,22.58,25.87,105.16,44,144.71,2.31-4.3,60.92-14.53,53.35-22.48.34-45.08,23.3-138.47,9.07-156.27-11.12-16.83-10.28,61-12.69,24.88,4.65-27.85-4.83-68.51-16-53.85.32,10.62,1.51,58.88-.76,63.11-6.86-164.17-36.76-100.25-20.57,4.59-19-117.62-38.68-66.57-17.74,27.32C3362.34,792.17,3362.6,710.93,3324.47,722.16Z" class="colorffffff svgShape"/><g class="color000000 svgShape" clip-path="url(#B)"><path fill="#eff3f7" d="M3295.64,819.48c64.06-36.84,154.36.61,154.36.61l-147.95,32.33" class="coloreff1f7 svgShape"/></g><path fill="none" stroke="#000102" stroke-miterlimit="10" stroke-width="3" d="M3324.47,722.16c19.68,22.58,25.87,105.16,44,144.71,2.31-4.3,60.92-14.53,53.35-22.48.34-45.08,23.3-138.47,9.07-156.27-11.12-16.83-10.28,61-12.69,24.88,4.65-27.85-4.83-68.51-16-53.85.32,10.62,1.51,58.88-.76,63.11-6.86-164.17-36.76-100.25-20.57,4.59-19-117.62-38.68-66.57-17.74,27.32C3362.34,792.17,3362.6,710.93,3324.47,722.16Z" class="colorStroke020000 svgStroke"/><path fill="#2693f5" d="M3304.6,1047.4c-.61.37,31.3-208.69,32.91-222.27,28.06-21.15,157-2.79,159.23,13.72,18.16,134.76-38.13,544.83-205.19,423.82" class="color2660f5 svgShape"/><g class="color000000 svgShape" clip-path="url(#C)"><path fill="#fff" stroke="#000102" stroke-miterlimit="10" stroke-width="3" d="M3463.64,1296.46c-1.65-67.94-144.43-68.86-148.26,0C3317,1364.41,3459.81,1365.33,3463.64,1296.46Z" class="colorffffff svgShape colorStroke020000 svgStroke"/><path fill="#2693f5" stroke="#000102" stroke-miterlimit="10" stroke-width="3" d="M3303.45,875.48c47-23.18,130-20.74,160.47,0" class="color2660f5 svgShape colorStroke020000 svgStroke"/></g><path fill="none" stroke="#000102" stroke-miterlimit="10" stroke-width="3" d="M3304.6,1047.4c-.61.37,31.3-208.69,32.91-222.27,28.06-21.15,157-2.79,159.23,13.72,18.16,134.76-38.13,544.83-205.19,423.82" class="colorStroke020000 svgStroke"/><line x1="3035.7" x2="3035.99" y1="1587.3" y2="1755.09" fill="#fff" stroke="#000102" stroke-miterlimit="10" stroke-width="3" class="colorStroke020000 svgStroke"/><path fill="#fff" stroke="#000102" stroke-miterlimit="10" stroke-width="3" d="M3081.71,1009.25c14.16,51.45,69.76,5.31,23.21,59.86.49,5,10.92,38.12-6.89,28.29-48.54-29.19-47.39,38.43-53.3-35.69-32.61-25-5.32-21.49,16.5-30.12C3065.44,1030.12,3068.61,998.43,3081.71,1009.25Z" class="colorffffff svgShape colorStroke020000 svgStroke"/><polygon fill="#fff" points="2884.87 1072.87 2884.87 1225.34 3129.98 1138.33 2884.87 1072.87" class="colorffffff svgShape"/><g class="color000000 svgShape" clip-path="url(#D)"><rect width="67.07" height="252" x="2852.58" y="1018.88" fill="#fff" stroke="#000102" stroke-miterlimit="10" stroke-width="3" class="colorffffff svgShape colorStroke020000 svgStroke"/></g><polygon fill="none" stroke="#000102" stroke-miterlimit="10" stroke-width="3" points="2884.87 1072.87 2884.87 1225.34 3129.98 1138.33 2884.87 1072.87" class="colorStroke020000 svgStroke"/><path fill="#fff" stroke="#000102" stroke-miterlimit="10" stroke-width="3" d="M2852.58,2122.45c1.61,22.61-90,29.12-95.17,0C2755.8,2099.84,2847.46,2093.33,2852.58,2122.45Z" class="colorffffff svgShape colorStroke020000 svgStroke"/><path fill="#fff" stroke="#000102" stroke-miterlimit="10" stroke-width="3" d="M3177.57,2122.45c1.6,22.61-90.05,29.12-95.18,0C3080.79,2099.84,3172.44,2093.33,3177.57,2122.45Z" class="colorffffff svgShape colorStroke020000 svgStroke"/><path fill="none" stroke="#000102" stroke-miterlimit="10" stroke-width="3" d="M2929.46,1548c-7.32,127.26-79.61,95.66-79.61,95.66" class="colorStroke020000 svgStroke"/><path fill="none" stroke="#000102" stroke-miterlimit="10" stroke-width="3" d="M2851.31,1009.63a16.53,16.53,0,0,0-2.88,13.2" class="colorStroke020000 svgStroke"/><path fill="none" stroke="#000102" stroke-miterlimit="10" stroke-width="3" d="M3210.4,979.84A75.91,75.91,0,0,1,3227,998.05" class="colorStroke020000 svgStroke"/><path fill="none" stroke="#000102" stroke-miterlimit="10" stroke-width="3" d="M2931.51,1329.67a38.41,38.41,0,0,0,32.11,16.58" class="colorStroke020000 svgStroke"/><path fill="none" stroke="#000102" stroke-miterlimit="10" stroke-width="3" d="M3354.1,1082.92l-12.2,4.88" class="colorStroke020000 svgStroke"/><path fill="#000102" d="M2869.35,1322a192,192,0,0,0,10.39,16.46c1,1.27,2,2.55,2.87,3.85l3,3.73c1,1.2,2.06,2.43,3.09,3.65l3.25,3.49,3.34,3.42c1.17,1.09,2.36,2.14,3.5,3.26l3.59,3.17c1.26,1,2.48,2,3.71,3a187.2,187.2,0,0,0,16,11.14l-.12.27a96.66,96.66,0,0,1-52.87-55.38Z" class="color020000 svgShape"/><path fill="#000102" d="M2961.08,890.33a73.09,73.09,0,0,1,9.6,2c.78.18,1.56.39,2.31.63l2.3.65,4.54,1.39,4.52,1.5,2.24.8c.76.24,1.51.53,2.25.83a74.43,74.43,0,0,1,9,3.9l-.05.3a131.66,131.66,0,0,1-18.87-4.47,130.07,130.07,0,0,1-18-7.28Z" class="color020000 svgShape"/><path fill="#000102" d="M3107.61,2068.73a18.21,18.21,0,0,1,5.49-2,28,28,0,0,1,11,0,18.18,18.18,0,0,1,5.49,2v.3c-3.66.12-7.32.09-11,.14s-7.32,0-11-.14Z" class="color020000 svgShape"/><path fill="#000102" d="M2792.71,2064.26c3.85.11,7.52.49,11.16.85q1.38.09,2.73.27l2.71.27c.91.06,1.8.19,2.7.29l2.71.24,2.7.29c.91.09,1.81.13,2.71.25l2.72.27c.9.05,1.81.15,2.72.26,3.65.36,7.32.7,11.12,1.34l0,.3a100.94,100.94,0,0,1-44.1-4.34Z" class="color020000 svgShape"/><path fill="#000102" d="M2671.76,2770.1c1,1.7,1.94,3.39,2.88,5.08.45.86.88,1.72,1.32,2.62a16.35,16.35,0,0,1,1.11,3,7.26,7.26,0,0,1,.25,2,6.44,6.44,0,0,1-.17,1.19,5.66,5.66,0,0,1-.5,1.19,4.57,4.57,0,0,1-.73,1,5.6,5.6,0,0,1-.41.43l-.41.35a6.31,6.31,0,0,1-.83.58,8.7,8.7,0,0,1-.8.47,30.11,30.11,0,0,1-6,1.95c-1.94.37-3.85.72-5.77,1s-3.83.48-5.76.57a68.93,68.93,0,0,1-11.67,0l-.05-.3,11.33-2c3.77-.67,7.55-1.32,11.28-2.15a28.49,28.49,0,0,0,5.45-1.59,4.67,4.67,0,0,0,2.13-1.63,3.69,3.69,0,0,0,.34-2.63,44.28,44.28,0,0,0-1.6-5.48q-.91-2.73-1.67-5.51Z" class="color020000 svgShape"/><path fill="#000102" d="M3195,2763.63c-.48,1.26-.94,2.48-1.41,3.65s-.92,2.35-1.29,3.53-.78,2.33-1.15,3.48-.66,2.32-1,3.47l-3.32-3.23a45.56,45.56,0,0,1,5.69-1.75c1-.22,1.93-.46,2.92-.62s2-.29,3-.41a39.54,39.54,0,0,1,6-.17,27,27,0,0,1,5.95.86l0,.3a99.69,99.69,0,0,0-11.43,1.57,97.36,97.36,0,0,0-11.15,3l-.51.16.16-.51a39.35,39.35,0,0,1,3-7.12,37.26,37.26,0,0,1,4.35-6.36Z" class="color020000 svgShape"/><path fill="#000102" d="M3363.13,767.86a5.58,5.58,0,0,1,2.52,1.18,3.67,3.67,0,0,1,1.24,3.66,5.7,5.7,0,0,1-1.27,2.47l-.28.1c-.54-1.18-.92-2.41-1.39-3.61s-.81-2.44-1.1-3.7Z" class="color020000 svgShape"/><path fill="#000102" d="M3046.12,2563.75a111.41,111.41,0,0,1,13.36,6.88c2.17,1.22,4.23,2.6,6.35,3.9s4.13,2.77,6.19,4.15,4,2.88,6,4.37,4,3,5.87,4.61a111.29,111.29,0,0,1,11.09,10.13l-.17.25-24.53-16.9L3046,2564Z" class="color020000 svgShape"/><path fill="#2693f5" d="M2276.62,1345.49H970.21a66.67,66.67,0,0,0-66.67,66.67v597.95a66.67,66.67,0,0,0,66.67,66.68h854c34.42,43.46,73.69,93,102.23,128.92,13.18,16.62,39.77,7.08,39.77-14.14V2076.79h310.4a66.67,66.67,0,0,0,66.67-66.68V1412.16A66.67,66.67,0,0,0,2276.62,1345.49Z" class="color2660f5 svgShape"/><g class="color000000 svgShape" clip-path="url(#E)"><path fill="#075ca8" d="M3735.11,534.64c5.09,1068.3-1628.78,768.06-1628.78,768.06s258.34,338.8,293.25,368.4,1599,57.52,1599,57.52L3844.93,492.74" class="color0749a8 svgShape"/></g><path fill="none" stroke="#000102" stroke-miterlimit="10" stroke-width="3" d="M2276.62,1345.49H970.21a66.67,66.67,0,0,0-66.67,66.67v597.95a66.67,66.67,0,0,0,66.67,66.68h854c34.42,43.46,73.69,93,102.23,128.92,13.18,16.62,39.77,7.08,39.77-14.14V2076.79h310.4a66.67,66.67,0,0,0,66.67-66.68V1412.16A66.67,66.67,0,0,0,2276.62,1345.49Z" class="colorStroke020000 svgStroke"/><circle cx="1194.23" cy="1691.14" r="66.6" fill="#fff" stroke="#000102" stroke-miterlimit="10" stroke-width="3" class="colorffffff svgShape colorStroke020000 svgStroke"/><circle cx="1472.65" cy="1691.14" r="66.6" fill="#fff" stroke="#000102" stroke-miterlimit="10" stroke-width="3" class="colorffffff svgShape colorStroke020000 svgStroke"/><circle cx="1751.06" cy="1691.14" r="66.6" fill="#fff" stroke="#000102" stroke-miterlimit="10" stroke-width="3" class="colorffffff svgShape colorStroke020000 svgStroke"/><circle cx="2029.48" cy="1691.14" r="66.6" fill="#fff" stroke="#000102" stroke-miterlimit="10" stroke-width="3" class="colorffffff svgShape colorStroke020000 svgStroke"/><path fill="#075ca8" stroke="#000102" stroke-miterlimit="10" stroke-width="3" d="M2088.53,1878.1a585.94,585.94,0,0,1-111.36,78" class="color0749a8 svgShape colorStroke020000 svgStroke"/><path fill="#075ca8" stroke="#000102" stroke-miterlimit="10" stroke-width="3" d="M1122.3,1405l-37.24,32.59" class="color0749a8 svgShape colorStroke020000 svgStroke"/><path fill="#075ca8" stroke="#000102" stroke-miterlimit="10" stroke-width="3" d="M1848.09,1911.85,1820,1930.26" class="color0749a8 svgShape colorStroke020000 svgStroke"/></svg>